<?xml version="1.0" standalone="no"?>
<!DOCTYPE svg PUBLIC "-//W3C//DTD SVG 20010904//EN"
 "http://www.w3.org/TR/2001/REC-SVG-20010904/DTD/svg10.dtd">
<svg version="1.0" xmlns="http://www.w3.org/2000/svg"
 width="918.000000pt" height="617.000000pt" viewBox="0 0 918.000000 617.000000"
 preserveAspectRatio="xMidYMid meet">

<g transform="translate(0.000000,617.000000) scale(0.100000,-0.100000)"
fill="#000000" stroke="none">
<path d="M0 3090 l0 -3080 4585 0 4585 0 0 3064 c0 1685 3 3071 6 3080 6 15
-403 16 -4585 16 l-4591 0 0 -3080z m9090 0 l0 -3000 -4505 0 -4505 0 0 3000
0 3000 4505 0 4505 0 0 -3000z"/>
<path d="M160 3090 l0 -2920 4425 0 4425 0 0 2920 0 2920 -4425 0 -4425 0 0
-2920z m8770 0 l0 -2840 -4345 0 -4345 0 0 2840 0 2840 4345 0 4345 0 0 -2840z"/>
<path d="M310 5485 l0 -375 4275 0 4275 0 0 375 0 375 -4275 0 -4275 0 0 -375z
m5940 105 l0 -80 -80 0 -80 0 0 80 0 80 80 0 80 0 0 -80z m-4976 28 c14 -23
-1 -36 -17 -14 -18 24 -51 17 -55 -12 -3 -18 1 -22 22 -22 14 0 26 -4 26 -10
0 -5 -11 -10 -25 -10 -24 0 -25 -2 -25 -70 0 -40 -4 -70 -10 -70 -6 0 -10 30
-10 70 0 63 -2 70 -20 70 -11 0 -20 5 -20 10 0 6 6 10 14 10 8 0 18 10 22 23
3 12 11 28 17 35 14 18 67 11 81 -10z m1086 -98 c0 -60 -4 -111 -9 -114 -5 -4
-11 -1 -13 5 -3 9 -9 9 -26 0 -28 -15 -68 -5 -87 22 -20 28 -19 87 1 116 14
20 23 23 60 18 44 -5 44 -4 44 28 0 17 3 35 6 38 18 17 24 -14 24 -113z m1029
77 c-20 -27 -24 -43 -24 -102 0 -59 4 -75 24 -102 31 -42 17 -58 -15 -18 -54
67 -53 179 2 238 34 37 44 26 13 -16z m328 21 c34 -38 43 -64 43 -123 0 -60
-28 -128 -58 -140 -25 -9 -27 4 -4 28 57 61 56 178 -2 226 -17 14 -21 31 -8
31 5 0 18 -10 29 -22z m-1735 -5 c10 -9 18 -26 18 -37 -1 -19 -2 -19 -21 7
-14 18 -30 27 -49 27 -37 0 -50 -23 -50 -90 0 -70 12 -90 56 -90 27 0 37 5 41
20 7 25 23 26 23 2 0 -28 -21 -42 -64 -42 -63 0 -76 19 -76 111 0 69 2 80 22
93 29 21 77 20 100 -1z m716 1 c12 -8 22 -24 22 -35 0 -26 -13 -24 -25 4 -11
25 -58 35 -81 16 -18 -15 -20 -139 -2 -157 7 -7 27 -12 46 -12 25 0 35 5 39
20 6 23 23 27 23 6 0 -39 -74 -61 -121 -36 -16 9 -19 22 -19 95 0 75 2 85 22
99 12 9 34 16 48 16 14 0 36 -7 48 -16z m873 -26 c13 -23 18 -43 15 -65 -3
-18 -1 -33 5 -33 5 0 9 5 9 11 0 8 5 8 15 -1 19 -16 19 -70 0 -96 -14 -19 -14
-18 -15 4 0 15 -6 22 -19 22 -17 0 -20 8 -23 48 l-3 47 -27 -46 c-16 -25 -28
-59 -28 -75 -1 -28 -1 -28 -15 -10 -23 30 -18 76 15 131 16 28 30 60 30 73 0
31 17 27 41 -10z m3879 8 c0 -8 -8 -13 -17 -12 -12 0 -19 -7 -21 -21 -3 -19 1
-23 21 -23 16 0 26 7 30 20 3 11 12 20 21 20 9 0 16 -8 16 -20 0 -11 7 -20 15
-20 8 0 15 -7 15 -15 0 -8 -7 -15 -15 -15 -11 0 -15 -12 -15 -45 0 -33 4 -45
15 -45 8 0 15 -7 15 -15 0 -22 -47 -19 -60 4 -5 11 -10 38 -10 60 0 37 -2 41
-25 41 -24 0 -25 -3 -25 -61 0 -52 -2 -60 -17 -57 -14 2 -19 15 -21 61 -2 31
-7 57 -12 57 -6 0 -10 7 -10 15 0 8 4 15 9 15 4 0 12 14 17 32 12 42 74 62 74
24z m-1015 -73 l29 -77 18 40 c9 21 24 56 33 77 12 29 20 37 40 37 l25 0 0
-105 c0 -98 -1 -105 -20 -105 -17 0 -19 8 -22 73 l-3 72 -28 -72 c-16 -40 -34
-73 -41 -73 -7 0 -26 33 -42 72 l-29 73 -3 -73 c-3 -64 -5 -72 -22 -72 -19 0
-20 7 -20 105 l0 105 28 0 c25 0 30 -7 57 -77z m215 64 c0 -19 -10 -27 -26
-20 -21 8 -17 33 6 33 11 0 20 -6 20 -13z m-5270 -28 c0 -8 4 -8 14 1 23 18
61 8 64 -17 4 -27 -6 -30 -23 -7 -9 14 -16 14 -33 5 -18 -10 -22 -21 -22 -61
0 -47 2 -50 25 -50 14 0 25 -4 25 -10 0 -5 -25 -10 -55 -10 -30 0 -55 5 -55
10 0 6 9 10 20 10 18 0 20 7 20 60 0 53 -2 60 -20 60 -11 0 -20 5 -20 10 0 6
14 10 30 10 17 0 30 -5 30 -11z m244 -8 c10 -11 16 -30 14 -43 -3 -21 -9 -23
-61 -26 -54 -3 -58 -5 -55 -25 2 -17 11 -23 40 -25 20 -2 46 2 58 8 16 9 20 8
20 -4 0 -25 -71 -41 -106 -25 -26 13 -29 20 -32 70 -2 42 1 61 13 73 23 23 87
21 109 -3z m180 0 c10 -11 16 -30 14 -43 -3 -21 -9 -23 -61 -26 -54 -3 -58 -5
-55 -25 2 -17 11 -23 40 -25 20 -2 47 2 59 8 17 10 20 9 17 -2 -12 -35 -90
-46 -125 -17 -19 16 -17 113 3 133 22 23 87 21 108 -3z m360 3 c22 -22 22
-117 0 -135 -9 -7 -33 -14 -54 -14 -56 0 -70 17 -70 84 0 31 5 62 12 69 18 18
94 15 112 -4z m357 -5 c11 -11 19 -30 17 -42 -3 -19 -10 -22 -61 -25 -54 -3
-58 -5 -55 -25 2 -18 11 -23 41 -25 21 -2 45 2 53 9 21 17 31 2 12 -17 -9 -10
-34 -17 -58 -18 -58 -1 -84 30 -77 93 3 27 12 50 23 58 27 20 81 16 105 -8z
m359 2 c5 -11 10 -42 10 -68 0 -27 6 -55 13 -62 10 -11 7 -12 -15 -7 -15 3
-37 2 -50 -2 -33 -12 -70 0 -79 26 -7 18 -3 28 16 48 21 21 31 24 60 18 27 -5
35 -3 35 8 0 41 -68 53 -92 16 -8 -12 -17 -17 -21 -11 -3 5 1 19 9 31 21 30
98 32 114 3z m198 -63 c2 -49 -1 -78 -8 -78 -6 0 -10 28 -10 71 0 62 -2 70
-17 67 -14 -3 -19 -15 -21 -63 -4 -91 -16 -99 -22 -15 -4 67 -7 75 -25 75 -18
0 -20 -8 -23 -67 -4 -94 -22 -85 -22 11 l0 78 73 -1 72 -1 3 -77z m166 60 c25
-35 21 -94 -9 -123 -27 -28 -33 -29 -69 -15 -25 9 -26 8 -26 -25 0 -18 -4 -37
-10 -40 -6 -4 -10 34 -10 107 l0 113 54 3 c47 2 56 0 70 -20z m3546 -28 c0
-13 -6 -16 -25 -12 -31 5 -55 -13 -55 -43 0 -30 24 -48 55 -42 20 3 25 1 23
-12 -5 -26 -70 -27 -93 -1 -24 27 -25 83 -1 109 30 33 96 34 96 1z m371 20 c5
0 9 -6 9 -14 0 -10 -9 -14 -26 -13 -38 3 -38 -15 -1 -38 37 -24 44 -46 22 -69
-24 -23 -85 -22 -85 2 0 15 6 18 30 14 17 -2 30 0 30 6 0 6 -13 19 -30 29 -19
11 -30 25 -30 40 0 25 38 56 58 48 8 -3 18 -5 23 -5z m-511 -75 c0 -68 -2 -75
-20 -75 -18 0 -20 7 -20 75 0 68 2 75 20 75 18 0 20 -7 20 -75z m200 63 c0 -9
3 -9 12 0 7 7 18 12 25 12 21 0 15 -25 -9 -35 -19 -8 -24 -19 -26 -62 -2 -38
-7 -53 -18 -53 -11 0 -14 16 -14 75 0 60 3 75 15 75 8 0 15 -5 15 -12z m190
-8 c45 -45 8 -130 -57 -130 -20 0 -45 7 -55 17 -23 21 -24 89 -1 115 23 25 87
24 113 -2z m284 1 c26 -29 24 -91 -4 -113 -34 -27 -84 -23 -109 8 -43 54 -10
124 58 124 25 0 44 -7 55 -19z m-1074 -116 l0 -85 -85 0 -85 0 0 85 0 85 85 0
85 0 0 -85z m-190 0 l0 -75 -80 0 -80 0 0 75 0 75 80 0 80 0 0 -75z"/>
<path d="M2252 5541 c-9 -5 -12 -25 -10 -57 3 -47 4 -49 36 -52 44 -4 62 12
62 59 0 28 -5 41 -19 49 -24 12 -51 13 -69 1z"/>
<path d="M1532 5538 c-22 -22 -13 -28 38 -28 28 0 50 4 50 8 0 16 -25 32 -50
32 -14 0 -31 -5 -38 -12z"/>
<path d="M1712 5538 c-22 -22 -13 -28 38 -28 28 0 50 4 50 8 0 16 -25 32 -50
32 -14 0 -31 -5 -38 -12z"/>
<path d="M2064 5536 c-3 -7 -4 -33 -2 -57 l3 -44 45 0 45 0 3 43 c2 24 -2 50
-9 58 -15 18 -78 18 -85 0z"/>
<path d="M2433 5543 c-7 -2 -13 -11 -13 -19 0 -10 14 -14 50 -14 48 0 50 1 40
20 -10 19 -47 26 -77 13z"/>
<path d="M2787 5473 c-4 -3 -7 -15 -7 -25 0 -13 8 -18 29 -18 42 0 61 10 61
31 0 15 -7 19 -38 19 -21 0 -42 -3 -45 -7z"/>
<path d="M3148 5539 c-22 -12 -24 -81 -4 -98 8 -7 30 -11 48 -9 30 3 33 6 38
43 3 22 2 48 -2 58 -10 19 -52 23 -80 6z"/>
<path d="M6950 5489 c-19 -34 2 -71 38 -67 24 3 27 7 27 43 0 36 -3 40 -27 43
-19 2 -30 -3 -38 -19z"/>
<path d="M7234 5483 c-4 -14 -2 -33 3 -42 22 -35 73 -19 73 23 0 50 -65 66
-76 19z"/>
<path d="M3898 4593 c20 -4 22 -10 22 -69 0 -36 4 -64 10 -64 6 0 10 28 10 64
0 59 2 65 23 69 12 2 -3 4 -33 4 -30 0 -45 -2 -32 -4z"/>
<path d="M4003 4530 c0 -41 2 -58 4 -38 8 70 53 76 53 7 0 -21 5 -39 10 -39
16 0 12 76 -5 90 -8 6 -23 9 -34 5 -16 -5 -20 -1 -24 22 -2 15 -4 -6 -4 -47z"/>
<path d="M4600 4590 c0 -5 5 -10 10 -10 6 0 10 5 10 10 0 6 -4 10 -10 10 -5 0
-10 -4 -10 -10z"/>
<path d="M4673 4593 c-7 -2 -13 -11 -13 -19 0 -8 -5 -14 -11 -14 -8 0 -8 -4
-1 -13 6 -7 12 -30 15 -52 4 -40 4 -40 5 8 2 40 5 47 22 47 17 0 20 -7 20 -45
0 -25 5 -45 10 -45 6 0 10 23 10 50 0 49 -1 50 -30 50 -35 0 -40 17 -7 30 12
5 15 9 7 9 -8 -1 -21 -3 -27 -6z"/>
<path d="M5040 4530 c0 -76 16 -96 21 -27 5 55 0 97 -12 97 -5 0 -9 -31 -9
-70z"/>
<path d="M4541 4578 c0 -10 -7 -18 -13 -18 -10 0 -10 -2 -1 -8 6 -4 13 -25 15
-46 2 -24 9 -41 18 -44 12 -4 13 -2 3 9 -20 20 -16 77 5 82 15 4 15 5 0 6 -9
0 -19 9 -21 19 -4 16 -5 16 -6 0z"/>
<path d="M4979 4575 c-9 -40 5 -110 24 -113 9 -2 17 1 17 7 0 6 -6 10 -12 9
-8 -2 -14 11 -16 34 -2 28 1 37 15 41 15 4 16 5 1 6 -9 0 -18 9 -20 19 -3 15
-4 14 -9 -3z"/>
<path d="M5251 4578 c0 -10 -7 -18 -13 -18 -10 0 -10 -2 -1 -8 6 -4 13 -25 15
-46 2 -24 9 -41 18 -44 12 -4 13 -2 3 9 -20 20 -16 77 5 82 15 4 15 5 0 6 -9
0 -19 9 -21 19 -4 16 -5 16 -6 0z"/>
<path d="M4113 4510 c0 -30 2 -43 4 -27 2 15 2 39 0 55 -2 15 -4 2 -4 -28z"/>
<path d="M4153 4544 c-6 -16 13 -38 40 -47 19 -6 -5 -29 -26 -23 -14 3 -17 2
-9 -6 15 -15 52 0 52 22 0 13 -9 22 -25 26 -30 7 -28 29 3 28 12 0 19 3 16 8
-9 14 -44 9 -51 -8z"/>
<path d="M4274 4535 c-15 -23 -15 -27 0 -50 18 -27 32 -31 56 -15 11 7 7 9
-15 7 -28 -2 -30 0 -30 33 0 32 2 35 28 33 15 -1 25 2 22 8 -11 17 -45 9 -61
-16z"/>
<path d="M4365 4544 c-18 -18 -13 -63 8 -76 17 -11 45 -10 52 1 3 6 -7 9 -22
8 -19 -1 -28 3 -31 16 -3 13 3 17 27 17 32 0 41 16 19 38 -16 16 -34 15 -53
-4z m53 -11 c2 -8 -6 -13 -22 -13 -25 0 -33 10 -19 24 10 10 36 3 41 -11z"/>
<path d="M4460 4510 c0 -29 2 -51 4 -49 8 8 10 88 3 95 -4 4 -7 -17 -7 -46z"/>
<path d="M4600 4510 c0 -27 5 -50 10 -50 6 0 10 23 10 50 0 28 -4 50 -10 50
-5 0 -10 -22 -10 -50z"/>
<path d="M4762 4548 c-17 -17 -15 -54 4 -72 18 -19 33 -20 54 -5 12 8 10 9 -8
4 -22 -7 -52 9 -52 26 0 5 16 9 35 9 22 0 35 5 35 13 0 18 -21 37 -40 37 -9 0
-21 -5 -28 -12z m56 -15 c2 -9 -7 -13 -28 -13 -28 0 -31 2 -20 15 15 18 41 16
48 -2z"/>
<path d="M4863 4553 c-21 -8 -14 -33 12 -45 30 -13 27 -33 -4 -32 -13 0 -18
-3 -12 -9 15 -15 46 -3 49 19 2 14 -5 24 -23 32 -29 13 -24 37 6 29 11 -3 17
-1 13 4 -6 10 -21 11 -41 2z"/>
<path d="M5092 4548 c9 -7 19 -31 21 -53 3 -32 4 -30 3 10 -1 42 -4 50 -21 53
-18 4 -19 3 -3 -10z"/>
<path d="M5156 4552 c-3 -5 4 -8 16 -8 33 1 31 -18 -3 -31 -35 -13 -37 -45 -4
-51 20 -4 20 -4 0 12 -17 13 -18 17 -5 26 25 17 43 12 37 -10 -3 -11 -1 -23 5
-26 5 -4 8 13 6 43 -3 40 -6 48 -25 51 -11 2 -24 -1 -27 -6z"/>
<path d="M4810 4130 c0 -123 1 -130 20 -130 18 0 20 7 20 64 0 69 14 92 50 81
18 -6 20 -15 20 -76 0 -62 2 -69 20 -69 18 0 20 7 20 70 0 57 -4 74 -20 90
-22 22 -42 25 -71 10 -18 -10 -19 -7 -19 40 0 43 -3 50 -20 50 -19 0 -20 -7
-20 -130z"/>
<path d="M5570 4215 c0 -43 -1 -45 -24 -39 -36 9 -64 -4 -81 -36 -21 -40 -19
-83 6 -114 22 -27 48 -33 79 -16 13 7 21 7 25 0 3 -5 13 -10 21 -10 11 0 14
23 14 130 0 123 -1 130 -20 130 -17 0 -20 -7 -20 -45z m-16 -71 c11 -4 16 -19
16 -48 0 -45 -13 -66 -42 -66 -35 0 -52 75 -22 104 17 18 24 19 48 10z"/>
<path d="M3633 4233 c-3 -10 -23 -62 -45 -116 -44 -112 -45 -117 -19 -117 12
0 23 11 30 30 9 28 13 30 63 30 50 0 54 -2 65 -30 8 -20 18 -30 32 -30 l21 0
-21 53 c-12 28 -33 85 -48 125 -22 61 -29 72 -49 72 -12 0 -25 -8 -29 -17z
m61 -120 c7 -21 4 -23 -33 -23 -23 0 -41 2 -41 4 0 2 6 19 14 37 7 19 16 43
21 54 7 21 13 10 39 -72z"/>
<path d="M4600 4133 c-25 -64 -46 -120 -48 -125 -2 -4 6 -8 18 -8 14 0 24 9
31 30 10 28 14 30 64 30 49 0 53 -2 65 -30 8 -19 20 -30 32 -30 23 0 23 -1
-34 148 -34 86 -43 102 -62 102 -18 0 -28 -17 -66 -117z m95 -3 l14 -40 -39 0
c-22 0 -40 3 -40 8 0 4 8 28 17 55 19 51 22 50 48 -23z"/>
<path d="M3800 4090 c0 -83 1 -90 20 -90 18 0 20 7 20 65 0 55 3 66 21 75 39
21 49 6 49 -70 0 -63 2 -70 20 -70 18 0 20 7 20 73 0 59 -4 77 -18 90 -21 19
-45 21 -72 7 -13 -7 -21 -7 -25 0 -3 5 -13 10 -21 10 -11 0 -14 -18 -14 -90z"/>
<path d="M4015 4155 c-19 -18 -25 -35 -25 -65 0 -72 59 -108 125 -78 39 17 30
31 -15 23 -43 -7 -70 5 -70 31 0 10 15 14 55 14 54 0 55 0 55 29 0 35 -40 71
-77 71 -13 0 -35 -11 -48 -25z m83 -17 c21 -21 13 -28 -28 -28 -22 0 -40 4
-40 8 0 14 23 32 40 32 9 0 21 -5 28 -12z"/>
<path d="M4195 4155 c-19 -18 -25 -35 -25 -65 0 -72 59 -108 125 -78 39 17 30
31 -15 23 -43 -7 -70 5 -70 31 0 10 15 14 55 14 54 0 55 0 55 29 0 35 -40 71
-77 71 -13 0 -35 -11 -48 -25z m83 -17 c21 -21 13 -28 -28 -28 -22 0 -40 4
-40 8 0 14 23 32 40 32 9 0 21 -5 28 -12z"/>
<path d="M4372 4164 c-13 -9 -22 -26 -22 -40 0 -21 8 -29 40 -41 52 -21 51
-48 -2 -48 -47 0 -58 -12 -24 -25 40 -15 64 -12 86 10 34 34 26 59 -26 81 -38
17 -43 23 -33 35 8 10 22 13 40 9 33 -7 47 10 20 24 -28 15 -53 14 -79 -5z"/>
<path d="M5000 4090 c0 -83 1 -90 20 -90 18 0 20 7 20 64 0 67 15 94 45 82 11
-4 15 -22 15 -76 0 -63 2 -70 20 -70 17 0 19 8 22 66 2 52 7 69 21 78 28 17
47 -17 47 -86 0 -45 3 -58 15 -58 22 0 21 142 -1 164 -20 20 -58 21 -74 1 -11
-14 -15 -14 -32 2 -16 14 -24 15 -48 6 -18 -7 -32 -7 -36 -2 -3 5 -12 9 -20 9
-11 0 -14 -18 -14 -90z"/>
<path d="M5313 4170 c-38 -15 -27 -31 19 -28 32 2 43 -1 45 -13 3 -11 -10 -19
-44 -30 -45 -13 -48 -16 -48 -48 0 -45 23 -60 67 -43 21 8 34 9 36 2 2 -5 11
-10 19 -10 25 0 14 147 -12 166 -21 16 -49 17 -82 4z m67 -103 c0 -18 -21 -37
-41 -37 -24 0 -33 18 -19 35 15 19 60 20 60 2z"/>
<path d="M4143 3783 c-7 -2 -13 -11 -13 -19 0 -8 -6 -14 -12 -14 -10 0 -10 -2
-1 -8 6 -4 13 -28 16 -52 l4 -45 1 47 c2 35 6 48 20 51 16 4 16 5 0 6 -10 0
-18 5 -18 11 0 5 8 14 18 19 17 11 7 13 -15 4z"/>
<path d="M4303 3720 c0 -41 2 -58 4 -37 2 20 2 54 0 75 -2 20 -4 3 -4 -38z"/>
<path d="M4340 3720 c0 -40 4 -70 10 -70 6 0 10 30 10 70 0 40 -4 70 -10 70
-6 0 -10 -30 -10 -70z"/>
<path d="M4970 3720 c0 -40 4 -70 10 -70 6 0 10 30 10 70 0 40 -4 70 -10 70
-6 0 -10 -30 -10 -70z"/>
<path d="M5350 3764 c0 -21 -3 -24 -20 -19 -28 9 -50 -11 -50 -45 0 -34 17
-49 52 -47 28 2 28 3 28 70 0 37 -2 67 -5 67 -3 0 -5 -12 -5 -26z m-16 -30
c31 -12 13 -74 -21 -74 -18 0 -28 47 -13 65 14 17 13 17 34 9z"/>
<path d="M5500 3720 c0 -40 2 -71 5 -68 8 7 8 128 1 135 -3 4 -6 -27 -6 -67z"/>
<path d="M5124 3767 c-6 -9 -7 -38 -4 -64 4 -38 9 -48 25 -50 11 -2 14 0 8 3
-7 3 -13 23 -13 45 0 24 5 39 13 39 8 0 9 3 1 8 -6 4 -13 14 -16 22 -4 12 -6
12 -14 -3z"/>
<path d="M5434 3767 c-6 -9 -7 -38 -4 -64 4 -38 9 -48 25 -50 11 -2 14 0 8 3
-7 3 -13 23 -13 45 0 24 5 39 13 39 8 0 9 3 1 8 -6 4 -13 14 -16 22 -4 12 -6
12 -14 -3z"/>
<path d="M3503 3734 c-6 -16 13 -38 40 -47 19 -6 -5 -29 -26 -23 -14 3 -17 2
-9 -6 15 -15 52 0 52 22 0 13 -9 22 -25 26 -30 7 -28 29 3 28 12 0 19 3 16 8
-9 14 -44 9 -51 -8z"/>
<path d="M3580 3718 c0 -45 14 -63 50 -63 30 -1 30 0 28 50 -1 49 -2 49 -5 8
-3 -25 -10 -44 -19 -47 -25 -10 -34 2 -34 45 0 21 -4 39 -10 39 -5 0 -10 -15
-10 -32z"/>
<path d="M3696 3734 c-9 -8 -16 -24 -16 -34 0 -34 49 -66 64 -42 3 5 -5 8 -17
8 -19 -1 -22 4 -22 34 0 30 3 35 22 34 12 0 20 3 17 8 -8 13 -31 9 -48 -8z"/>
<path d="M3782 3738 c-7 -7 -12 -24 -12 -38 0 -14 5 -31 12 -38 14 -14 44 -16
52 -4 3 5 -4 8 -16 8 -28 -1 -46 28 -32 52 7 9 21 17 32 16 12 0 19 3 16 8 -8
12 -38 10 -52 -4z"/>
<path d="M3872 3738 c-7 -7 -12 -24 -12 -38 0 -14 5 -31 12 -38 15 -15 45 -16
53 -2 3 6 -1 7 -10 4 -16 -6 -45 11 -45 27 0 5 16 9 35 9 22 0 35 5 35 13 0
18 -21 37 -40 37 -9 0 -21 -5 -28 -12z m48 -13 c11 -13 8 -15 -20 -15 -28 0
-31 2 -20 15 7 8 16 15 20 15 4 0 13 -7 20 -15z"/>
<path d="M3963 3734 c-6 -16 13 -38 40 -47 19 -6 -5 -29 -26 -23 -14 3 -17 2
-9 -6 15 -15 52 0 52 22 0 13 -9 22 -25 26 -30 7 -28 29 3 28 12 0 19 3 16 8
-9 14 -44 9 -51 -8z"/>
<path d="M4043 3734 c-6 -16 13 -38 40 -47 19 -6 -5 -29 -26 -23 -14 3 -17 2
-9 -6 15 -15 52 0 52 22 0 13 -9 22 -25 26 -30 7 -28 29 3 28 12 0 19 3 16 8
-9 14 -44 9 -51 -8z"/>
<path d="M4194 3705 c1 -42 4 -50 21 -53 18 -4 19 -3 3 10 -9 7 -19 31 -21 53
-3 32 -4 30 -3 -10z"/>
<path d="M4248 3704 c-2 -25 0 -48 4 -50 5 -3 8 18 8 45 0 64 -7 66 -12 5z"/>
<path d="M4380 3746 c0 -2 9 -23 19 -47 15 -33 17 -48 9 -63 -7 -15 -7 -18 0
-11 16 15 62 125 53 125 -5 0 -15 -17 -23 -37 l-15 -38 -16 38 c-13 31 -27 48
-27 33z"/>
<path d="M4524 3725 c-15 -23 -15 -27 0 -50 18 -27 32 -31 56 -15 11 7 7 9
-15 7 -28 -2 -30 0 -30 33 0 32 2 35 28 33 15 -1 25 2 22 8 -11 17 -45 9 -61
-16z"/>
<path d="M4616 3734 c-9 -8 -16 -24 -16 -34 0 -20 25 -50 41 -50 27 0 49 22
49 50 0 44 -44 64 -74 34z m58 -16 c14 -23 -3 -53 -30 -53 -20 0 -31 33 -20
61 7 19 35 14 50 -8z"/>
<path d="M4710 3698 c0 -59 18 -64 22 -5 4 60 31 58 39 -3 6 -43 6 -43 7 -9 2
38 26 69 42 53 5 -5 10 -27 13 -49 4 -39 4 -39 5 8 2 51 -15 70 -42 48 -9 -8
-16 -8 -20 -2 -4 6 -20 9 -36 8 -29 -2 -30 -4 -30 -49z"/>
<path d="M4871 3684 c1 -38 4 -59 6 -48 3 15 10 20 22 17 20 -5 51 21 51 43 0
26 -20 54 -37 54 -15 0 -15 -1 1 -13 25 -18 18 -72 -9 -72 -16 0 -20 7 -21 37
0 21 -3 41 -7 45 -4 3 -6 -25 -6 -63z"/>
<path d="M5025 3734 c-18 -18 -13 -63 8 -76 17 -11 45 -10 52 1 3 6 -7 9 -22
8 -19 -1 -28 3 -31 16 -3 13 3 17 27 17 32 0 41 16 19 38 -16 16 -34 15 -53
-4z m53 -11 c2 -8 -6 -13 -22 -13 -25 0 -33 10 -19 24 10 10 36 3 41 -11z"/>
<path d="M5192 3738 c-17 -17 -15 -54 4 -72 18 -19 33 -20 54 -5 12 8 10 9 -8
4 -22 -7 -52 9 -52 26 0 5 16 9 35 9 22 0 35 5 35 13 0 18 -21 37 -40 37 -9 0
-21 -5 -28 -12z m56 -15 c2 -9 -7 -13 -28 -13 -28 0 -31 2 -20 15 15 18 41 16
48 -2z"/>
<path d="M5542 3738 c9 -7 19 -31 21 -53 3 -32 4 -30 3 10 -1 42 -4 50 -21 53
-18 4 -19 3 -3 -10z"/>
<path d="M5606 3729 c-14 -21 -12 -42 7 -66 11 -14 43 -17 51 -5 2 4 -7 8 -22
7 -17 0 -28 6 -30 18 -3 14 4 17 32 17 29 0 34 3 29 18 -14 37 -45 42 -67 11z
m52 -6 c2 -8 -6 -13 -22 -13 -25 0 -33 10 -19 24 10 10 36 3 41 -11z"/>
<path d="M3080 3416 l0 -45 -34 6 c-26 4 -39 0 -54 -15 -28 -28 -37 -83 -20
-118 20 -41 41 -51 80 -36 21 8 34 9 36 2 2 -5 10 -10 18 -10 11 0 14 25 14
130 0 123 -1 130 -20 130 -17 0 -20 -7 -20 -44z m-16 -72 c19 -7 22 -84 4
-102 -44 -44 -90 32 -52 86 16 23 23 26 48 16z"/>
<path d="M3474 3445 c-4 -9 -2 -21 4 -27 15 -15 44 -1 40 19 -4 23 -36 29 -44
8z"/>
<path d="M4130 3330 c0 -123 1 -130 20 -130 19 0 20 7 20 130 0 123 -1 130
-20 130 -19 0 -20 -7 -20 -130z"/>
<path d="M5043 3444 c-9 -23 13 -40 32 -24 12 10 13 16 4 26 -15 18 -28 18
-36 -2z"/>
<path d="M5260 3330 c0 -123 1 -130 20 -130 18 0 20 7 20 69 0 61 2 70 20 76
36 11 50 -12 50 -81 0 -57 2 -64 20 -64 18 0 20 7 20 59 0 33 -4 71 -10 85
-11 30 -49 42 -79 26 -20 -10 -21 -8 -21 40 0 43 -3 50 -20 50 -19 0 -20 -7
-20 -130z"/>
<path d="M5833 3444 c-10 -26 14 -41 35 -21 15 16 15 19 2 27 -21 14 -30 12
-37 -6z"/>
<path d="M2220 3325 l0 -125 25 0 c24 0 25 3 25 55 l0 55 45 0 c33 0 45 4 45
15 0 11 -12 15 -45 15 l-45 0 0 40 0 40 50 0 c38 0 50 4 50 15 0 12 -15 15
-75 15 l-75 0 0 -125z"/>
<path d="M4345 3440 c-35 -14 -66 -57 -72 -98 -11 -84 54 -152 136 -138 44 7
70 31 53 48 -9 9 -15 9 -24 0 -16 -16 -70 -15 -91 1 -37 27 -39 97 -4 138 18
20 55 23 106 8 8 -2 16 3 18 12 7 30 -74 50 -122 29z"/>
<path d="M4557 3443 c-2 -5 -7 -20 -11 -34 -3 -15 -15 -29 -26 -32 -25 -6 -26
-27 -1 -27 14 0 17 -6 13 -25 -3 -16 -11 -25 -23 -25 -11 0 -19 -7 -19 -15 0
-8 7 -15 16 -15 13 0 15 -7 10 -35 -5 -27 -4 -35 7 -35 16 0 27 21 27 51 0 13
7 19 21 19 17 0 20 -5 17 -32 -4 -44 19 -48 28 -4 4 26 11 36 25 36 11 0 19 7
19 15 0 8 -7 15 -15 15 -23 0 -19 41 5 47 23 6 27 33 6 33 -11 0 -13 9 -9 35
4 27 2 35 -10 35 -9 0 -17 -13 -21 -35 -5 -25 -12 -35 -26 -35 -16 0 -18 5
-13 35 3 22 2 35 -5 35 -6 0 -13 -3 -15 -7z m43 -118 c0 -18 -5 -25 -20 -25
-20 0 -28 28 -13 43 15 16 33 6 33 -18z"/>
<path d="M5520 3325 c0 -104 2 -125 15 -125 12 0 15 16 15 87 0 99 4 99 54 6
17 -31 36 -58 43 -60 6 -3 30 29 52 69 l41 73 0 -87 c0 -81 2 -88 20 -88 19 0
20 7 20 126 0 124 0 125 -22 122 -17 -2 -33 -23 -63 -80 -22 -43 -42 -78 -45
-78 -3 0 -24 36 -48 80 -31 57 -49 80 -63 80 -18 0 -19 -8 -19 -125z"/>
<path d="M6782 3434 c-12 -8 -22 -24 -22 -35 0 -10 -7 -19 -15 -19 -8 0 -15
-7 -15 -15 0 -8 7 -15 15 -15 12 0 15 -15 15 -75 0 -68 2 -75 20 -75 18 0 20
7 20 75 0 68 2 75 20 75 11 0 20 7 20 15 0 9 -10 15 -26 15 -31 0 -28 20 4 35
12 5 22 15 22 22 0 18 -31 16 -58 -3z"/>
<path d="M3360 3409 c0 -12 -8 -28 -17 -36 -13 -10 -15 -16 -5 -19 7 -4 12
-27 12 -64 0 -78 32 -110 80 -80 17 10 6 25 -18 25 -14 0 -18 12 -20 58 -3 55
-2 57 23 57 16 0 25 6 25 15 0 9 -9 15 -25 15 -20 0 -25 5 -25 25 0 16 -6 25
-15 25 -9 0 -15 -9 -15 -21z"/>
<path d="M5150 3415 c0 -8 -9 -23 -20 -32 -24 -21 -26 -33 -5 -33 11 0 15 -16
17 -66 3 -75 17 -92 62 -80 29 7 26 26 -5 26 -17 0 -19 7 -19 60 0 53 2 60 20
60 11 0 20 7 20 15 0 8 -9 15 -20 15 -15 0 -20 7 -20 25 0 16 -6 25 -15 25 -8
0 -15 -7 -15 -15z"/>
<path d="M6890 3410 c0 -10 -9 -24 -20 -30 -23 -12 -26 -30 -5 -30 11 0 15
-16 17 -66 2 -48 8 -70 19 -77 22 -14 70 -1 63 17 -3 8 -14 12 -25 9 -17 -5
-19 0 -19 56 0 54 2 61 20 61 11 0 20 7 20 15 0 8 -9 15 -20 15 -15 0 -20 7
-20 25 0 16 -6 25 -15 25 -8 0 -15 -9 -15 -20z"/>
<path d="M2415 3355 c-19 -18 -25 -35 -25 -65 0 -79 77 -117 136 -67 21 19 27
32 27 67 0 35 -6 48 -27 67 -36 30 -80 30 -111 -2z m93 -37 c24 -51 -24 -110
-63 -78 -18 15 -20 81 -3 98 20 20 52 10 66 -20z"/>
<path d="M2590 3307 c0 -59 4 -77 18 -90 21 -19 45 -21 73 -7 13 7 19 7 19 0
0 -5 7 -10 15 -10 12 0 15 17 15 90 0 73 -3 90 -15 90 -12 0 -15 -14 -15 -65
0 -55 -3 -66 -21 -75 -39 -21 -49 -6 -49 70 0 63 -2 70 -20 70 -18 0 -20 -7
-20 -73z"/>
<path d="M2780 3290 c0 -83 2 -90 20 -90 17 0 19 8 22 66 3 70 18 94 52 81 13
-5 16 -21 16 -77 0 -63 2 -70 20 -70 18 0 20 7 20 73 0 59 -4 77 -18 90 -21
19 -45 21 -72 7 -13 -7 -21 -7 -25 0 -3 5 -13 10 -21 10 -11 0 -14 -18 -14
-90z"/>
<path d="M3193 3370 c-38 -15 -27 -31 19 -28 33 2 43 -1 46 -14 2 -11 -6 -18
-30 -23 -43 -9 -68 -32 -68 -62 0 -33 40 -51 77 -34 19 9 29 9 31 2 2 -6 10
-11 18 -11 11 0 14 16 14 70 0 57 -4 74 -20 90 -21 21 -51 24 -87 10z m67
-109 c0 -20 -32 -37 -50 -26 -14 9 -13 32 3 38 28 12 47 7 47 -12z"/>
<path d="M3480 3290 c0 -83 1 -90 20 -90 19 0 20 7 20 90 0 83 -1 90 -20 90
-19 0 -20 -7 -20 -90z"/>
<path d="M3584 3357 c-23 -20 -29 -33 -29 -67 0 -34 6 -47 29 -67 57 -49 136
-10 136 67 0 48 -25 79 -71 86 -29 5 -41 1 -65 -19z m85 -21 c17 -21 10 -87
-11 -100 -23 -14 -50 2 -62 37 -18 50 42 101 73 63z"/>
<path d="M3760 3290 c0 -83 1 -90 20 -90 18 0 20 7 20 69 0 61 2 70 20 76 36
11 50 -12 50 -81 0 -57 2 -64 20 -64 18 0 20 7 20 59 0 33 -4 71 -10 85 -11
30 -49 42 -81 25 -17 -9 -24 -9 -27 0 -2 6 -10 11 -18 11 -11 0 -14 -19 -14
-90z"/>
<path d="M3973 3368 c-35 -17 -28 -31 13 -24 22 5 41 3 50 -5 23 -19 17 -27
-25 -34 -50 -8 -76 -35 -67 -69 8 -31 44 -43 76 -26 16 9 25 9 33 1 22 -22 27
-10 27 63 0 66 -3 77 -22 90 -26 18 -53 19 -85 4z m77 -103 c0 -18 -37 -38
-56 -31 -17 7 -18 33 -1 39 26 11 57 7 57 -8z"/>
<path d="M4753 3368 c2 -7 14 -48 27 -90 18 -61 27 -78 41 -78 14 0 23 15 36
60 10 33 20 60 23 60 3 0 13 -27 23 -60 13 -45 22 -60 36 -60 14 0 23 17 41
78 13 42 25 83 27 90 3 7 -3 12 -15 12 -16 0 -23 -11 -32 -52 -19 -81 -24 -82
-44 -13 -26 90 -47 89 -71 -2 l-19 -68 -19 68 c-16 53 -24 67 -40 67 -11 0
-17 -5 -14 -12z"/>
<path d="M5040 3290 c0 -83 1 -90 20 -90 19 0 20 7 20 90 0 83 -1 90 -20 90
-19 0 -20 -7 -20 -90z"/>
<path d="M5830 3290 c0 -83 1 -90 20 -90 19 0 20 7 20 90 0 83 -1 90 -20 90
-19 0 -20 -7 -20 -90z"/>
<path d="M5935 3355 c-35 -34 -35 -96 1 -132 21 -21 32 -24 61 -20 40 7 58 20
49 35 -4 7 -16 6 -35 -1 -40 -15 -61 4 -61 53 0 46 19 64 59 55 35 -7 50 9 22
24 -33 18 -70 12 -96 -14z"/>
<path d="M6080 3290 c0 -83 1 -90 20 -90 18 0 20 7 20 58 0 63 11 82 47 82 16
0 23 6 23 20 0 24 -32 27 -51 4 -11 -14 -13 -14 -21 0 -5 9 -16 16 -23 16 -12
0 -15 -18 -15 -90z"/>
<path d="M6253 3370 c-28 -11 -43 -40 -43 -83 0 -45 26 -76 71 -83 29 -5 41
-1 65 19 23 20 29 33 29 67 0 68 -58 106 -122 80z m77 -52 c13 -25 13 -31 0
-55 -30 -54 -80 -37 -80 26 0 65 50 82 80 29z"/>
<path d="M6420 3360 c-34 -34 -21 -61 43 -88 42 -18 28 -38 -23 -34 -48 3 -52
-16 -6 -33 40 -14 81 11 81 50 0 24 -7 33 -35 46 -43 21 -46 44 -5 45 48 2 51
4 31 19 -27 21 -62 19 -86 -5z"/>
<path d="M6593 3370 c-49 -20 -60 -104 -18 -145 31 -32 75 -32 112 -1 22 19
28 32 28 66 0 68 -58 106 -122 80z m77 -52 c13 -25 13 -31 0 -55 -30 -54 -80
-37 -80 26 0 65 50 82 80 29z"/>
<path d="M2910 2890 l0 -70 35 0 c41 0 85 36 85 70 0 34 -44 70 -85 70 l-35 0
0 -70z m81 50 c14 -8 19 -21 19 -50 0 -42 -18 -60 -59 -60 -19 0 -21 6 -21 60
0 54 2 60 21 60 11 0 29 -5 40 -10z"/>
<path d="M3340 2890 c0 -40 4 -70 10 -70 6 0 10 30 10 70 0 40 -4 70 -10 70
-6 0 -10 -30 -10 -70z"/>
<path d="M3823 2934 c-20 -20 -24 -31 -19 -57 10 -50 58 -73 96 -46 12 8 9 9
-13 5 -44 -10 -67 8 -67 54 0 45 25 66 68 56 20 -5 23 -4 12 4 -25 16 -49 11
-77 -16z"/>
<path d="M4180 2950 c0 -5 5 -10 10 -10 6 0 10 5 10 10 0 6 -4 10 -10 10 -5 0
-10 -4 -10 -10z"/>
<path d="M4232 2935 c-12 -14 -18 -25 -12 -25 5 0 11 -21 13 -47 l3 -48 2 48
c2 43 4 47 26 47 22 0 25 -5 29 -47 l3 -48 2 53 2 52 -32 0 -33 1 24 19 c15
13 18 20 9 20 -8 0 -24 -11 -36 -25z"/>
<path d="M5138 2890 c-14 -38 -22 -70 -18 -70 5 0 12 9 15 20 10 30 70 28 80
-2 3 -13 8 -18 11 -13 5 13 -40 128 -53 132 -4 2 -20 -28 -35 -67z m62 -16 c0
-2 -11 -4 -25 -4 -28 0 -30 8 -13 45 l12 26 13 -32 c7 -17 13 -33 13 -35z"/>
<path d="M5430 2950 c0 -5 5 -10 10 -10 6 0 10 5 10 10 0 6 -4 10 -10 10 -5 0
-10 -4 -10 -10z"/>
<path d="M5480 2890 c0 -40 4 -70 10 -70 6 0 10 30 10 70 0 40 -4 70 -10 70
-6 0 -10 -30 -10 -70z"/>
<path d="M5572 2948 c-20 -20 -13 -32 8 -13 21 19 50 14 50 -10 0 -8 -16 -32
-35 -54 -19 -21 -35 -41 -35 -45 0 -3 19 -5 43 -4 37 1 38 2 9 5 l-33 4 31 35
c16 19 30 43 30 52 0 22 -19 42 -40 42 -9 0 -21 -5 -28 -12z"/>
<path d="M5686 2944 c-28 -27 -12 -64 27 -64 17 0 17 -2 -3 -30 -12 -16 -18
-30 -13 -30 10 0 63 83 63 98 0 15 -29 42 -45 42 -7 0 -21 -7 -29 -16z m49
-24 c0 -18 -6 -26 -22 -28 -18 -3 -23 1 -23 21 0 28 9 39 30 35 9 -2 15 -14
15 -28z"/>
<path d="M5872 2948 c-7 -7 -12 -16 -12 -22 0 -5 6 -1 14 9 16 23 46 14 46
-15 0 -11 -16 -38 -36 -60 l-36 -40 48 2 c37 1 41 2 17 5 -18 2 -33 7 -33 10
0 3 14 21 30 40 34 39 36 46 14 67 -19 19 -36 20 -52 4z"/>
<path d="M5976 2944 c-33 -33 -12 -124 28 -124 42 0 63 92 28 123 -23 21 -36
21 -56 1z m58 -25 c11 -32 1 -78 -19 -86 -25 -9 -45 17 -45 56 0 62 45 83 64
30z"/>
<path d="M6085 2944 c-9 -9 -13 -19 -10 -22 3 -3 11 3 19 13 16 22 46 14 46
-13 0 -11 -7 -25 -15 -32 -9 -7 -25 -26 -36 -42 l-20 -28 48 2 c45 1 46 2 9 5
l-39 4 30 32 c39 41 46 63 27 82 -20 19 -38 19 -59 -1z"/>
<path d="M6202 2912 l-33 -47 36 -3 c28 -3 35 -8 36 -25 1 -20 2 -21 6 -2 3
11 10 23 17 27 8 6 7 8 -1 8 -9 0 -13 16 -13 45 0 25 -3 45 -7 45 -5 0 -23
-22 -41 -48z m35 -39 c-3 -2 -15 -3 -26 -1 -20 3 -20 3 2 38 l22 35 3 -33 c2
-19 1 -36 -1 -39z"/>
<path d="M4121 2938 c0 -10 -6 -18 -13 -18 -9 0 -9 -3 0 -12 7 -7 12 -29 12
-50 0 -30 4 -38 18 -37 10 0 12 3 5 6 -21 8 -16 81 5 86 15 4 15 5 0 6 -9 0
-19 9 -21 19 -4 16 -5 16 -6 0z"/>
<path d="M4524 2937 c-6 -9 -7 -38 -4 -64 4 -38 9 -48 25 -50 11 -2 14 0 8 3
-7 3 -13 23 -13 45 0 24 5 39 13 39 8 0 9 3 1 8 -6 4 -13 14 -16 22 -4 12 -6
12 -14 -3z"/>
<path d="M3061 2906 c-17 -20 -10 -66 11 -79 11 -8 23 -7 40 1 l23 12 -23 -6
c-22 -6 -52 10 -52 27 0 5 16 9 35 9 36 0 46 15 23 38 -16 16 -43 15 -57 -2z
m49 -11 c11 -13 8 -15 -20 -15 -28 0 -31 2 -20 15 7 8 16 15 20 15 4 0 13 -7
20 -15z"/>
<path d="M3144 2908 c2 -7 10 -30 17 -50 7 -21 15 -38 19 -38 4 0 17 23 28 50
12 28 17 50 12 50 -4 0 -15 -19 -22 -42 l-14 -42 -17 42 c-9 23 -19 42 -23 42
-3 0 -3 -6 0 -12z"/>
<path d="M3246 2899 c-14 -21 -12 -42 7 -66 11 -14 43 -17 51 -5 2 4 -7 8 -22
7 -17 0 -28 6 -30 18 -3 14 4 17 32 17 29 0 34 3 29 18 -14 37 -45 42 -67 11z
m52 -6 c2 -8 -6 -13 -22 -13 -25 0 -33 10 -19 24 10 10 36 3 41 -11z"/>
<path d="M3396 2904 c-9 -8 -16 -24 -16 -34 0 -20 25 -50 41 -50 27 0 49 22
49 50 0 44 -44 64 -74 34z m58 -16 c14 -23 -3 -53 -30 -53 -20 0 -31 33 -20
61 7 19 35 14 50 -8z"/>
<path d="M3490 2856 c0 -37 4 -66 10 -66 6 0 10 9 10 19 0 14 5 18 19 14 29
-7 55 36 42 71 -6 14 -18 26 -28 26 -16 0 -16 -1 1 -13 25 -18 18 -72 -9 -72
-17 0 -20 7 -21 39 0 22 -6 42 -12 44 -8 2 -12 -16 -12 -62z"/>
<path d="M3602 2908 c-17 -17 -15 -54 4 -72 18 -19 33 -20 54 -5 12 8 10 9 -8
4 -22 -7 -52 9 -52 26 0 5 16 9 35 9 22 0 35 5 35 13 0 18 -21 37 -40 37 -9 0
-21 -5 -28 -12z m56 -15 c2 -9 -7 -13 -28 -13 -28 0 -31 2 -20 15 15 18 41 16
48 -2z"/>
<path d="M3690 2868 c0 -27 5 -48 10 -48 6 0 10 18 10 40 0 33 4 42 23 50 19
7 18 8 -10 7 -32 -2 -33 -3 -33 -49z"/>
<path d="M3942 2908 c-7 -7 -12 -24 -12 -38 0 -14 5 -31 12 -38 15 -15 45 -16
53 -2 3 6 -1 7 -10 4 -16 -6 -45 11 -45 27 0 5 16 9 35 9 22 0 35 5 35 13 0
18 -21 37 -40 37 -9 0 -21 -5 -28 -12z m48 -13 c11 -13 8 -15 -20 -15 -28 0
-31 2 -20 15 7 8 16 15 20 15 4 0 13 -7 20 -15z"/>
<path d="M4030 2868 c0 -27 5 -48 10 -48 6 0 10 18 10 40 0 33 4 42 23 50 19
7 18 8 -10 7 -32 -2 -33 -3 -33 -49z"/>
<path d="M4180 2870 c0 -27 5 -50 10 -50 6 0 10 23 10 50 0 28 -4 50 -10 50
-5 0 -10 -22 -10 -50z"/>
<path d="M4342 2908 c-7 -7 -12 -24 -12 -38 0 -14 5 -31 12 -38 14 -14 44 -16
52 -4 3 5 -4 8 -16 8 -28 -1 -46 28 -32 52 7 9 21 17 32 16 12 0 19 3 16 8 -8
12 -38 10 -52 -4z"/>
<path d="M4430 2910 c-11 -8 -8 -9 11 -5 18 5 28 2 32 -8 4 -10 -4 -17 -24
-21 -25 -5 -30 -10 -27 -28 2 -18 9 -23 36 -23 30 -1 32 1 32 35 0 52 -26 73
-60 50z m50 -49 c0 -5 -7 -14 -15 -21 -18 -15 -42 1 -31 19 8 13 46 15 46 2z"/>
<path d="M4593 2870 c0 -30 2 -43 4 -27 2 15 2 39 0 55 -2 15 -4 2 -4 -28z"/>
<path d="M4642 2908 c-7 -7 -12 -24 -12 -38 0 -52 48 -68 76 -25 15 23 15 27
0 50 -18 27 -45 32 -64 13z m56 -36 c2 -22 -2 -34 -12 -38 -34 -13 -61 37 -34
64 21 21 43 9 46 -26z"/>
<path d="M4742 2865 c1 -49 2 -49 5 -8 3 25 10 44 19 47 25 10 34 -2 34 -45 0
-21 5 -39 10 -39 13 0 13 60 0 80 -5 8 -23 15 -40 15 -30 1 -30 0 -28 -50z"/>
<path d="M4886 2904 c-9 -8 -16 -24 -16 -34 0 -20 25 -50 41 -50 27 0 49 22
49 50 0 44 -44 64 -74 34z m58 -16 c14 -23 -3 -53 -30 -53 -20 0 -31 33 -20
61 7 19 35 14 50 -8z"/>
<path d="M4980 2870 c0 -62 17 -66 22 -5 2 29 -1 46 -9 50 -9 3 -13 -10 -13
-45z"/>
<path d="M5032 2908 c9 -7 19 -31 21 -53 3 -32 4 -30 3 10 -1 42 -4 50 -21 53
-18 4 -19 3 -3 -10z"/>
<path d="M5251 2850 c1 -36 4 -55 6 -42 3 18 9 21 24 17 27 -9 49 12 49 45 0
34 -17 49 -52 47 -28 -2 -28 -3 -27 -67z m65 34 c8 -31 -14 -58 -39 -48 -32
12 -15 74 20 74 7 0 16 -12 19 -26z"/>
<path d="M5350 2868 c0 -26 5 -48 10 -48 6 0 10 18 10 40 0 33 4 42 23 49 19
8 18 9 -10 9 -33 -1 -33 -2 -33 -50z"/>
<path d="M5430 2870 c0 -27 5 -50 10 -50 6 0 10 23 10 50 0 28 -4 50 -10 50
-5 0 -10 -22 -10 -50z"/>
<path d="M3105 2208 c-8 -29 -35 -154 -59 -278 -43 -216 -81 -350 -103 -357
-5 -2 -15 8 -21 23 -15 32 -34 210 -30 278 2 40 0 51 -12 51 -11 0 -16 -15
-20 -52 -5 -45 -20 -87 -20 -55 0 7 -7 12 -15 12 -10 0 -15 -10 -15 -30 0 -49
-42 -79 -110 -79 -55 0 -55 0 -31 17 14 9 42 24 64 32 46 17 46 34 2 38 -16 1
-50 5 -75 8 -54 7 -96 -17 -149 -86 l-34 -45 6 35 c4 19 2 42 -3 50 -8 12 -14
10 -37 -12 l-28 -27 -17 29 c-22 38 -49 38 -81 0 -14 -16 -31 -30 -38 -30 -22
0 -81 -52 -111 -99 l-30 -46 6 150 c3 82 9 180 13 217 4 44 2 68 -4 68 -13 0
-20 -63 -34 -310 -6 -107 -13 -198 -15 -202 -8 -12 -51 -9 -66 5 -7 6 -24 18
-38 25 -14 7 -42 27 -64 45 l-39 33 21 39 c75 149 68 310 -19 409 -39 45 -71
58 -85 35 -4 -7 0 -9 13 -5 13 4 28 -3 50 -26 41 -44 59 -82 72 -153 12 -70
-4 -165 -40 -236 l-21 -43 -21 24 c-28 35 -87 164 -87 193 0 36 28 109 54 142
22 26 27 29 45 18 25 -16 31 -16 31 -3 0 6 -11 16 -25 22 -22 10 -29 8 -49
-11 -14 -13 -34 -46 -47 -74 -21 -49 -22 -51 -31 -28 -18 49 -26 100 -16 103
12 4 -21 78 -35 78 -10 0 -2 -56 23 -160 15 -59 18 -97 13 -176 -8 -141 15
-204 75 -204 15 0 38 7 51 17 23 16 25 15 55 -18 18 -19 43 -40 56 -46 14 -7
40 -22 59 -32 48 -28 69 -16 113 70 40 76 69 113 102 131 17 9 18 7 11 -31 -5
-31 -3 -48 9 -66 21 -31 36 -31 65 -1 13 14 30 22 38 19 18 -7 33 13 33 47 0
14 9 39 21 55 l20 30 -3 -60 c-4 -77 14 -80 55 -10 48 83 84 115 131 115 l40
0 -34 -28 c-24 -21 -32 -33 -27 -47 6 -15 15 -17 62 -12 30 3 57 2 60 -3 19
-30 -70 -125 -127 -137 -31 -6 -43 -18 -33 -32 8 -13 62 6 101 35 l32 23 6
-24 c3 -13 15 -29 26 -35 17 -9 24 -6 43 13 12 13 29 26 38 29 9 4 23 30 31
60 15 51 16 52 22 23 4 -16 11 -43 17 -60 6 -16 11 -36 12 -42 0 -7 12 -13 27
-13 20 0 31 9 47 38 26 47 57 159 78 282 24 141 64 336 75 366 13 32 13 44 0
44 -5 0 -16 -24 -25 -52z m-1307 -470 c17 -35 40 -77 52 -95 l21 -32 -25 -16
c-33 -22 -53 -14 -71 30 -13 30 -22 175 -11 175 2 0 18 -28 34 -62z m580 10
c14 -14 15 -47 2 -68 -8 -13 -14 -11 -37 12 -26 27 -26 28 -8 48 21 23 27 24
43 8z m411 -158 c-24 -42 -33 -48 -45 -29 -9 15 25 129 45 153 15 17 16 15 19
-33 2 -39 -2 -61 -19 -91z m81 100 c0 -5 -2 -10 -4 -10 -3 0 -8 5 -11 10 -3 6
-1 10 4 10 6 0 11 -4 11 -10z m-538 -35 c9 -21 8 -28 -7 -45 -21 -23 -35 -18
-35 15 0 55 23 72 42 30z"/>
<path d="M5875 1999 c-184 -30 -246 -44 -247 -54 -2 -17 33 -18 105 -4 81 15
79 17 101 -84 32 -142 15 -232 -55 -291 -36 -30 -45 -30 -71 5 -28 37 -27 167
1 214 21 36 12 57 -14 35 -45 -37 -46 -214 -2 -274 12 -17 54 -18 803 -17 687
1 792 0 809 -13 26 -20 56 -20 81 -1 28 21 186 21 219 -1 13 -8 34 -14 47 -11
20 4 20 4 -4 6 -45 2 -32 21 15 23 36 1 34 2 -18 7 l-60 6 -7 44 c-4 25 -12
49 -18 55 -8 8 -9 4 -2 -15 9 -24 8 -25 -18 -21 -30 4 -80 -18 -111 -49 l-20
-20 3 48 c2 38 8 50 26 59 34 17 37 23 10 20 -37 -4 -48 -15 -48 -49 0 -66 -8
-77 -56 -77 -43 0 -44 0 -44 34 0 72 -19 82 -85 41 -22 -13 -48 -25 -59 -25
-16 0 -17 5 -12 35 6 28 4 35 -9 35 -8 0 -15 -6 -15 -14 0 -19 -57 -66 -80
-66 -27 0 -41 23 -34 59 5 24 3 31 -9 31 -8 0 -17 -10 -21 -22 -12 -50 -134
-93 -149 -54 -7 18 22 157 36 174 7 9 7 16 1 20 -6 4 -13 15 -17 25 -10 26
-30 21 -25 -7 4 -20 0 -25 -23 -30 -17 -3 -53 -32 -91 -71 -82 -86 -174 -146
-114 -74 31 36 32 49 8 79 l-17 21 -28 -21 c-20 -16 -27 -30 -27 -56 0 -35 -1
-35 -37 -32 -40 3 -40 1 -26 71 8 40 -9 33 -46 -18 -18 -25 -39 -45 -47 -45
-19 0 -18 3 11 47 28 41 29 76 3 81 -21 4 -58 -52 -58 -87 0 -41 -59 -68 -88
-39 -15 15 -16 117 -2 154 14 36 4 70 -16 53 -8 -6 -14 -18 -14 -26 0 -24 -50
-119 -81 -152 -15 -17 -37 -31 -49 -31 -21 0 -21 3 -15 65 6 55 5 65 -8 65
-11 0 -20 -15 -27 -42 -13 -48 -36 -88 -50 -88 -6 0 -10 24 -10 54 0 39 -5 60
-20 77 l-20 24 5 -55 c11 -103 15 -120 37 -131 17 -9 24 -7 40 9 19 18 22 19
47 4 38 -22 75 -9 108 37 l27 38 18 -38 c22 -51 60 -67 105 -45 20 9 35 12 38
6 8 -14 49 -12 63 2 8 8 15 8 27 -2 8 -7 15 -9 15 -5 0 4 6 3 13 -3 7 -6 28
-11 47 -10 19 0 47 -3 61 -7 19 -5 33 0 57 20 l32 26 -2 -45 -2 -46 -429 0
-429 0 26 30 c50 60 57 140 26 289 -11 52 -20 97 -20 101 0 4 33 11 73 14 93
9 119 16 114 30 -5 16 -30 16 -152 -5z m935 -273 c0 -20 -98 -166 -111 -166
-30 0 31 131 74 159 38 25 37 24 37 7z m-234 -74 c-20 -20 -22 -1 -4 31 11 20
12 21 16 3 2 -10 -3 -26 -12 -34z m250 -89 c30 -19 82 -13 122 15 27 20 28 20
51 1 27 -22 68 -24 95 -4 16 12 21 12 42 -1 21 -15 27 -14 74 12 27 15 52 25
54 23 2 -2 7 -19 11 -36 l7 -33 -271 0 c-149 0 -271 3 -271 6 0 3 12 22 28 42
25 33 27 34 30 14 2 -13 14 -30 28 -39z m734 -4 c0 -16 -7 -19 -42 -18 l-43 1
33 14 c18 8 30 19 27 24 -3 6 1 7 9 4 9 -3 16 -15 16 -25z m-50 14 c-8 -3 -24
-10 -35 -16 -18 -9 -19 -9 -6 6 7 10 23 17 35 16 14 0 16 -2 6 -6z m-153 -49
c-3 -3 -12 -4 -19 -1 -8 3 -5 6 6 6 11 1 17 -2 13 -5z"/>
<path d="M7190 1781 c0 -15 16 -22 34 -15 25 9 19 24 -9 24 -14 0 -25 -4 -25
-9z"/>
<path d="M7496 1661 c-3 -5 5 -11 19 -13 28 -6 34 6 9 16 -20 8 -22 8 -28 -3z"/>
<path d="M7724 1608 c10 -7 32 -22 50 -33 38 -25 41 -56 6 -66 -23 -6 -22 -7
8 -8 36 -1 52 20 35 48 -5 9 -34 29 -64 44 -30 15 -46 22 -35 15z"/>
<path d="M1991 1321 c-12 -12 -21 -28 -21 -36 0 -21 36 -55 59 -55 11 0 23 -4
26 -10 3 -5 11 -10 17 -10 7 0 6 5 -1 14 -9 11 -9 19 1 35 11 18 10 26 -2 49
-20 34 -53 39 -79 13z m57 -3 c30 -30 -2 -93 -36 -71 -21 13 -27 50 -12 69 15
17 32 18 48 2z"/>
<path d="M2180 1330 c0 -5 5 -10 10 -10 6 0 10 5 10 10 0 6 -4 10 -10 10 -5 0
-10 -4 -10 -10z"/>
<path d="M2490 1285 c0 -54 0 -55 30 -55 17 0 30 5 30 10 0 6 -9 10 -20 10
-17 0 -20 7 -20 45 0 25 -4 45 -10 45 -5 0 -10 -25 -10 -55z"/>
<path d="M6370 1295 c0 -31 -5 -47 -17 -54 -17 -10 -17 -10 -1 -11 10 0 22 9
28 19 13 25 13 91 0 91 -5 0 -10 -20 -10 -45z"/>
<path d="M6503 1285 c0 -33 2 -45 4 -27 2 18 2 45 0 60 -2 15 -4 0 -4 -33z"/>
<path d="M6692 1288 l-2 -58 30 0 c17 0 30 5 30 10 0 6 -11 10 -24 10 -22 0
-25 5 -29 48 -3 46 -3 46 -5 -10z"/>
<path d="M6760 1330 c0 -5 5 -10 10 -10 6 0 10 5 10 10 0 6 -4 10 -10 10 -5 0
-10 -4 -10 -10z"/>
<path d="M2103 1275 c2 -36 4 -40 30 -40 25 -1 27 2 27 37 0 46 -18 51 -22 6
-4 -42 -21 -39 -30 4 -6 31 -6 31 -5 -7z"/>
<path d="M2180 1270 c0 -22 5 -40 10 -40 6 0 10 18 10 40 0 22 -4 40 -10 40
-5 0 -10 -18 -10 -40z"/>
<path d="M2220 1268 c0 -46 18 -51 22 -5 2 17 8 32 13 32 6 0 11 -15 13 -32 4
-41 22 -44 22 -4 0 33 -13 46 -47 46 -20 1 -23 -4 -23 -37z"/>
<path d="M2310 1295 c-24 -29 14 -85 41 -58 8 8 6 11 -7 10 -14 -2 -19 5 -19
23 0 18 5 25 17 24 10 -1 15 2 12 7 -8 14 -30 11 -44 -6z"/>
<path d="M2386 1274 c8 -19 12 -44 9 -55 -4 -10 -4 -19 0 -19 9 0 46 92 42
104 -3 6 -8 -1 -12 -16 -9 -35 -21 -36 -29 -3 -4 14 -11 25 -16 25 -5 0 -2
-16 6 -36z"/>
<path d="M2574 1299 c-4 -8 -3 -9 4 -5 7 4 17 4 23 0 7 -4 2 -11 -13 -18 -32
-16 -30 -41 5 -42 26 -1 28 1 25 35 -3 37 -29 54 -44 30z m36 -38 c0 -12 -20
-25 -27 -18 -7 7 6 27 18 27 5 0 9 -4 9 -9z"/>
<path d="M2651 1265 c2 -33 3 -35 6 -10 2 17 11 35 20 42 13 10 13 12 -6 10
-18 -1 -21 -7 -20 -42z"/>
<path d="M2706 1295 c-3 -9 3 -19 15 -25 23 -13 16 -32 -8 -23 -11 4 -14 3 -9
-5 10 -17 36 -15 43 4 4 10 0 20 -10 26 -21 11 -22 32 -2 24 8 -3 15 -1 15 4
0 16 -37 11 -44 -5z"/>
<path d="M2783 1303 c-22 -8 -16 -61 7 -68 39 -12 66 35 38 63 -13 13 -24 14
-45 5z m32 -33 c0 -13 -6 -25 -12 -27 -16 -6 -27 21 -19 43 9 23 31 11 31 -16z"/>
<path d="M2861 1266 l2 -41 6 35 c4 22 12 35 21 35 9 0 18 -13 22 -35 l6 -35
-1 40 c-2 36 -5 40 -29 41 -26 1 -28 -1 -27 -40z"/>
<path d="M6413 1275 c2 -36 5 -40 30 -41 25 -1 27 1 26 40 l-2 41 -6 -35 c-4
-22 -12 -35 -21 -35 -9 0 -18 13 -22 35 l-6 35 1 -40z"/>
<path d="M6543 1270 c0 -25 2 -35 4 -22 2 12 2 32 0 45 -2 12 -4 2 -4 -23z"/>
<path d="M6585 1301 c-3 -6 0 -8 8 -5 8 3 18 1 22 -5 3 -6 0 -11 -8 -11 -20 0
-37 -23 -29 -37 4 -7 18 -11 30 -10 20 1 23 6 20 37 -3 35 -29 53 -43 31z m35
-40 c0 -12 -20 -25 -27 -18 -7 7 6 27 18 27 5 0 9 -4 9 -9z"/>
<path d="M6760 1270 c0 -22 5 -40 10 -40 6 0 10 18 10 40 0 22 -4 40 -10 40
-5 0 -10 -18 -10 -40z"/>
<path d="M6802 1273 c3 -34 6 -38 31 -39 25 -1 27 1 26 40 l-2 41 -6 -34 c-8
-48 -31 -53 -31 -7 0 20 -5 36 -11 36 -6 0 -9 -16 -7 -37z"/>
<path d="M6886 1295 c-3 -9 3 -19 15 -25 23 -13 16 -32 -8 -23 -11 4 -14 3 -9
-5 10 -17 36 -15 43 4 4 10 0 20 -10 26 -21 11 -22 32 -2 24 8 -3 15 -1 15 4
0 16 -37 11 -44 -5z"/>
<path d="M6960 1295 c-26 -31 13 -82 44 -56 19 16 21 42 4 59 -16 16 -33 15
-48 -3z m44 -10 c7 -18 -2 -45 -15 -45 -5 0 -12 7 -15 15 -7 18 2 45 15 45 5
0 11 -7 15 -15z"/>
<path d="M7040 1268 c0 -46 18 -51 22 -5 4 41 21 38 30 -5 6 -31 6 -31 5 7 -2
36 -4 40 -29 40 -26 1 -28 -2 -28 -37z"/>
<path d="M1390 1080 c0 -48 1 -50 28 -49 23 2 24 2 5 6 -27 5 -31 30 -5 36 16
4 16 5 0 6 -27 2 -23 39 5 44 19 4 18 4 -5 6 -27 1 -28 -1 -28 -49z"/>
<path d="M1950 1080 c0 -49 1 -50 30 -50 23 0 33 6 42 25 17 38 -3 75 -42 75
-29 0 -30 -1 -30 -50z m65 20 c10 -33 -4 -60 -31 -60 -21 0 -24 4 -24 40 0 36
3 40 24 40 16 0 27 -7 31 -20z"/>
<path d="M2472 1113 c-4 -10 -5 -34 -1 -53 l6 -35 2 33 c0 18 6 32 14 32 8 0
7 4 -3 10 -13 9 -13 11 0 20 9 6 11 10 3 10 -7 0 -16 -8 -21 -17z"/>
<path d="M2709 1113 c-13 -16 -12 -17 3 -4 10 7 27 11 38 8 11 -3 18 -1 14 4
-9 15 -41 10 -55 -8z"/>
<path d="M2898 1088 c-3 -43 -23 -62 -35 -32 -4 11 0 22 12 30 10 8 14 14 8
14 -19 0 -35 -28 -28 -49 4 -14 14 -20 31 -19 22 2 24 7 24 50 0 59 -8 63 -12
6z"/>
<path d="M3006 1114 c-32 -31 -8 -85 37 -83 21 1 21 1 -2 8 -54 15 -52 76 2
76 14 -1 23 3 21 7 -9 13 -42 9 -58 -8z"/>
<path d="M5621 1078 c1 -29 4 -43 6 -31 3 13 13 23 26 25 16 2 22 10 22 28 0
20 -6 26 -27 28 -28 3 -28 3 -27 -50z m49 22 c0 -13 -7 -20 -20 -20 -13 0 -20
7 -20 20 0 13 7 20 20 20 13 0 20 -7 20 -20z"/>
<path d="M5950 1111 c0 -14 -6 -18 -22 -15 -23 5 -23 4 0 -6 14 -6 22 -17 20
-27 -5 -26 -36 -28 -41 -3 -4 18 -5 18 -3 -2 1 -18 7 -23 29 -24 26 -1 27 1
27 47 0 27 -2 49 -5 49 -3 0 -5 -9 -5 -19z"/>
<path d="M6211 1078 c2 -53 2 -53 8 -13 l7 40 14 -27 c7 -16 17 -28 21 -28 4
0 -2 18 -14 40 -12 22 -25 40 -29 40 -5 0 -7 -24 -7 -52z"/>
<path d="M6285 1098 c-13 -27 -13 -30 -1 -14 14 17 15 15 19 -20 3 -33 4 -31
5 14 1 28 0 52 -3 52 -2 0 -12 -15 -20 -32z"/>
<path d="M6672 1113 c-4 -10 -5 -34 -1 -53 l6 -35 2 33 c0 18 6 32 14 32 8 0
7 4 -3 10 -13 9 -13 11 0 20 9 6 11 10 3 10 -7 0 -16 -8 -21 -17z"/>
<path d="M6790 1080 c0 -46 2 -50 23 -50 30 0 47 18 47 50 0 32 -17 50 -47 50
-21 0 -23 -4 -23 -50z m55 0 c0 -29 -4 -36 -22 -38 -21 -3 -23 1 -23 38 0 37
2 41 23 38 18 -2 22 -9 22 -38z"/>
<path d="M7083 1080 c0 -30 2 -43 4 -27 2 15 2 39 0 55 -2 15 -4 2 -4 -28z"/>
<path d="M7390 1080 c0 -48 1 -50 28 -50 35 0 52 16 52 50 0 34 -17 50 -52 50
-27 0 -28 -2 -28 -50z m65 0 c0 -31 -3 -35 -27 -38 -27 -3 -28 -1 -28 38 0 39
1 41 28 38 24 -3 27 -7 27 -38z"/>
<path d="M7675 1120 c-3 -5 -1 -10 4 -10 6 0 11 5 11 10 0 6 -2 10 -4 10 -3 0
-8 -4 -11 -10z"/>
<path d="M1718 1109 c-2 -6 -2 -26 0 -45 3 -24 9 -34 21 -33 10 0 11 2 4 6
-15 5 -18 50 -4 55 5 2 3 8 -4 15 -9 9 -15 9 -17 2z"/>
<path d="M2258 1109 c-2 -6 -2 -26 0 -45 3 -24 9 -34 21 -33 10 0 11 2 4 6
-15 5 -18 50 -4 55 5 2 3 8 -4 15 -9 9 -15 9 -17 2z"/>
<path d="M1471 1068 c13 -21 28 -38 33 -38 5 0 3 7 -5 16 -10 12 -10 20 -1 35
7 10 8 19 3 19 -5 0 -11 -6 -14 -12 -3 -10 -8 -9 -22 2 -14 11 -12 6 6 -22z"/>
<path d="M1519 1084 c-17 -21 0 -48 32 -51 19 -1 20 -1 4 4 -34 9 -41 23 -12
23 15 0 27 4 27 9 0 4 -11 6 -25 3 -31 -6 -33 6 -2 18 15 6 17 9 6 9 -9 1 -22
-6 -30 -15z"/>
<path d="M1585 1081 c-8 -25 4 -51 24 -51 14 1 14 2 -1 11 -25 14 -22 38 5 49
l22 9 -22 0 c-13 1 -24 -7 -28 -18z"/>
<path d="M1642 1075 c0 -16 2 -22 5 -12 2 9 2 23 0 30 -3 6 -5 -1 -5 -18z"/>
<path d="M1690 1075 c0 -17 -7 -29 -22 -35 -22 -8 -21 -9 5 -7 24 1 27 5 27
34 0 18 -2 33 -5 33 -3 0 -5 -11 -5 -25z"/>
<path d="M1763 1065 c0 -22 2 -30 4 -17 2 12 2 30 0 40 -3 9 -5 -1 -4 -23z"/>
<path d="M1791 1099 c-1 -3 4 -20 10 -37 10 -30 29 -36 29 -10 0 6 -3 8 -7 4
-4 -3 -12 6 -19 21 -7 16 -13 25 -13 22z"/>
<path d="M1835 1089 c-4 -6 -5 -12 -2 -15 2 -3 7 2 10 11 7 17 1 20 -8 4z"/>
<path d="M1867 1094 c-16 -16 -6 -34 19 -34 19 0 25 5 22 17 -3 19 -29 29 -41
17z m33 -14 c0 -5 -7 -10 -15 -10 -8 0 -15 5 -15 10 0 6 7 10 15 10 8 0 15 -4
15 -10z"/>
<path d="M2053 1065 c0 -22 2 -30 4 -17 2 12 2 30 0 40 -3 9 -5 -1 -4 -23z"/>
<path d="M2083 1065 c0 -22 2 -30 4 -17 2 12 2 30 0 40 -3 9 -5 -1 -4 -23z"/>
<path d="M2137 1094 c-16 -16 -6 -34 19 -34 19 0 25 5 22 17 -3 19 -29 29 -41
17z m33 -14 c0 -5 -7 -10 -15 -10 -8 0 -15 5 -15 10 0 6 7 10 15 10 8 0 15 -4
15 -10z"/>
<path d="M2199 1084 c-16 -19 -1 -48 27 -51 15 -2 14 -1 -3 7 -13 5 -23 16
-23 25 0 9 10 20 23 25 15 6 17 9 6 9 -9 1 -22 -6 -30 -15z"/>
<path d="M2328 1093 c29 -6 31 -50 2 -56 -17 -4 -16 -4 2 -3 19 1 23 7 23 31
0 25 -4 30 -25 32 -22 1 -22 1 -2 -4z"/>
<path d="M2385 1090 c-3 -6 1 -7 9 -4 18 7 21 14 7 14 -6 0 -13 -4 -16 -10z"/>
<path d="M2511 1060 c1 -27 3 -29 6 -10 2 14 11 30 20 37 13 10 13 12 -6 10
-17 -1 -21 -7 -20 -37z"/>
<path d="M2565 1079 c-8 -26 -7 -27 30 -18 l30 7 -28 1 c-17 1 -26 5 -22 12 4
6 14 8 22 5 8 -3 11 -1 8 4 -11 17 -33 11 -40 -11z"/>
<path d="M2634 1086 c-11 -28 0 -51 26 -53 22 -1 22 -1 3 4 -29 6 -30 23 -2
23 14 0 19 5 17 17 -4 23 -36 29 -44 9z m36 -6 c0 -5 -7 -10 -15 -10 -8 0 -15
5 -15 10 0 6 7 10 15 10 8 0 15 -4 15 -10z"/>
<path d="M2808 1093 c29 -6 31 -50 2 -56 -17 -4 -16 -4 2 -3 19 1 23 7 23 31
0 25 -4 30 -25 32 -22 1 -22 1 -2 -4z"/>
<path d="M2929 1084 c-17 -21 0 -48 32 -51 19 -1 20 -1 4 4 -34 9 -41 23 -12
23 15 0 27 4 27 9 0 4 -11 6 -25 3 -31 -6 -33 6 -2 18 15 6 17 9 6 9 -9 1 -22
-6 -30 -15z"/>
<path d="M3086 1091 c-3 -5 3 -7 14 -4 11 3 20 1 20 -5 0 -5 -9 -12 -20 -15
-25 -6 -27 -37 -2 -36 10 0 12 3 5 6 -18 7 -16 23 1 23 8 0 17 -8 20 -17 2
-10 4 -2 3 17 -2 34 -27 54 -41 31z"/>
<path d="M3153 1084 c-2 -7 -3 -23 0 -36 3 -18 5 -17 6 8 1 27 5 31 30 31 26
0 31 -5 34 -31 4 -29 4 -29 5 6 2 35 1 36 -34 35 -20 -1 -38 -7 -41 -13z"/>
<path d="M3252 1055 c0 -27 2 -44 5 -37 2 6 11 12 18 12 8 0 16 4 19 9 4 5 -3
7 -13 4 -16 -4 -20 1 -24 29 -3 24 -4 19 -5 -17z"/>
<path d="M3270 1096 c0 -2 7 -7 16 -10 8 -3 12 -2 9 4 -6 10 -25 14 -25 6z"/>
<path d="M3350 1085 c-17 -21 -2 -50 26 -50 14 0 19 7 19 30 0 34 -24 45 -45
20z m40 -20 c0 -25 -23 -35 -35 -15 -10 16 2 40 20 40 9 0 15 -9 15 -25z"/>
<path d="M3423 1065 c0 -22 2 -30 4 -17 2 12 2 30 0 40 -3 9 -5 -1 -4 -23z"/>
<path d="M3472 1070 c1 -22 6 -30 20 -30 10 0 18 -5 18 -11 0 -7 -11 -9 -26
-6 -16 3 -22 1 -16 -5 15 -15 46 -5 50 15 2 12 -3 17 -20 18 -22 0 -22 1 -3 9
17 7 17 9 3 9 -26 1 -22 19 5 24 19 4 19 4 -5 6 -23 1 -27 -3 -26 -29z"/>
<path d="M5704 1086 c-3 -8 -4 -25 -1 -38 3 -18 5 -16 6 9 0 17 7 34 14 36 9
4 9 6 -1 6 -7 1 -15 -5 -18 -13z"/>
<path d="M5757 1094 c-16 -16 -6 -34 19 -34 19 0 25 5 22 17 -3 19 -29 29 -41
17z m33 -14 c0 -5 -7 -10 -15 -10 -8 0 -15 5 -15 10 0 6 7 10 15 10 8 0 15 -4
15 -10z"/>
<path d="M5814 1088 c-4 -6 0 -16 9 -23 22 -16 21 -22 0 -28 -14 -4 -12 -5 5
-6 16 -1 22 5 22 19 0 11 -7 20 -15 20 -21 0 -19 18 3 23 15 4 15 5 0 6 -9 0
-20 -4 -24 -11z"/>
<path d="M5873 1065 c0 -22 2 -30 4 -17 2 12 2 30 0 40 -3 9 -5 -1 -4 -23z"/>
<path d="M5975 1079 c-8 -26 -7 -27 30 -18 l30 7 -28 1 c-17 1 -26 5 -22 12 4
6 14 8 22 5 8 -3 11 -1 8 4 -11 17 -33 11 -40 -11z"/>
<path d="M6041 1060 l1 -35 7 30 c4 20 12 30 24 29 9 -1 17 2 17 7 0 5 -11 8
-25 7 -22 -2 -25 -7 -24 -38z"/>
<path d="M6118 1093 c7 -3 16 -2 19 1 4 3 -2 6 -13 5 -11 0 -14 -3 -6 -6z"/>
<path d="M6333 1065 c0 -22 2 -30 4 -17 2 12 2 30 0 40 -3 9 -5 -1 -4 -23z"/>
<path d="M6364 1086 c-9 -23 0 -51 16 -52 9 0 10 1 3 3 -20 7 -16 51 5 56 16
4 16 5 -1 6 -10 0 -20 -5 -23 -13z"/>
<path d="M6421 1060 c1 -27 3 -29 6 -10 2 14 11 30 20 37 13 10 13 12 -6 10
-17 -1 -21 -7 -20 -37z"/>
<path d="M6477 1094 c-13 -13 -7 -55 9 -61 24 -9 51 23 38 45 -12 19 -36 27
-47 16z m38 -29 c0 -11 -8 -21 -17 -23 -14 -3 -18 3 -18 23 0 20 4 26 18 23 9
-2 17 -12 17 -23z"/>
<path d="M6544 1088 c-4 -6 0 -16 9 -23 22 -16 21 -22 0 -28 -14 -4 -12 -5 5
-6 16 -1 22 5 22 19 0 11 -7 20 -15 20 -21 0 -19 18 3 23 15 4 15 5 0 6 -9 0
-20 -4 -24 -11z"/>
<path d="M6605 1089 c-4 -6 -4 -13 -1 -16 3 -4 6 -1 6 6 0 8 8 11 20 8 11 -3
18 -1 14 4 -7 12 -31 11 -39 -2z"/>
<path d="M6718 1093 c7 -3 16 -2 19 1 4 3 -2 6 -13 5 -11 0 -14 -3 -6 -6z"/>
<path d="M6884 1086 c-11 -28 0 -51 26 -53 22 -1 22 -1 3 4 -29 6 -30 23 -2
23 14 0 19 5 17 17 -4 23 -36 29 -44 9z m36 -6 c0 -5 -7 -10 -15 -10 -8 0 -15
5 -15 10 0 6 7 10 15 10 8 0 15 -4 15 -10z"/>
<path d="M6940 1095 c0 -5 5 -17 10 -25 5 -8 10 -10 10 -5 0 6 -5 17 -10 25
-5 8 -10 11 -10 5z"/>
<path d="M7017 1094 c-16 -16 -6 -34 19 -34 19 0 25 5 22 17 -3 19 -29 29 -41
17z m33 -14 c0 -5 -7 -10 -15 -10 -8 0 -15 5 -15 10 0 6 7 10 15 10 8 0 15 -4
15 -10z"/>
<path d="M7115 1089 c-4 -6 -4 -13 -1 -16 3 -4 6 -1 6 6 0 8 8 11 20 8 11 -3
18 -1 14 4 -7 12 -31 11 -39 -2z"/>
<path d="M7182 1055 c0 -27 2 -44 5 -37 2 6 11 12 18 12 8 0 16 4 19 9 4 5 -3
7 -13 4 -16 -4 -20 1 -24 29 -3 24 -4 19 -5 -17z"/>
<path d="M7200 1096 c0 -2 7 -7 16 -10 8 -3 12 -2 9 4 -6 10 -25 14 -25 6z"/>
<path d="M7257 1094 c-16 -16 -6 -34 19 -34 19 0 25 5 22 17 -3 19 -29 29 -41
17z m33 -14 c0 -5 -7 -10 -15 -10 -8 0 -15 5 -15 10 0 6 7 10 15 10 8 0 15 -4
15 -10z"/>
<path d="M7324 1086 c-3 -8 -4 -25 -1 -38 3 -18 5 -16 6 9 0 17 7 34 14 36 9
4 9 6 -1 6 -7 1 -15 -5 -18 -13z"/>
<path d="M7493 1065 c0 -22 2 -30 4 -17 2 12 2 30 0 40 -3 9 -5 -1 -4 -23z"/>
<path d="M7514 1094 c3 -6 10 -24 16 -40 9 -23 13 -25 20 -14 6 8 10 20 10 25
0 6 -5 3 -10 -5 -5 -8 -10 -10 -10 -4 0 5 -7 19 -16 30 -8 10 -13 14 -10 8z"/>
<path d="M7593 1065 c0 -22 2 -30 4 -17 2 12 2 30 0 40 -3 9 -5 -1 -4 -23z"/>
<path d="M7620 1085 c0 -9 7 -18 15 -21 23 -9 18 -24 -7 -25 -19 -1 -20 -2 -4
-6 30 -8 45 16 21 33 -17 13 -18 16 -5 24 13 8 12 10 -2 10 -10 0 -18 -7 -18
-15z"/>
<path d="M7710 1085 c-17 -21 -2 -50 26 -50 14 0 19 7 19 30 0 34 -24 45 -45
20z m40 -20 c0 -25 -23 -35 -35 -15 -10 16 2 40 20 40 9 0 15 -9 15 -25z"/>
<path d="M7783 1065 c0 -22 2 -30 4 -17 2 12 2 30 0 40 -3 9 -5 -1 -4 -23z"/>
<path d="M7807 1093 c6 -4 13 -22 16 -38 4 -27 5 -27 3 4 0 21 -7 36 -16 38
-10 3 -11 2 -3 -4z"/>
<path d="M2690 1078 c0 -33 58 -65 74 -40 2 4 -7 8 -22 7 -18 0 -30 8 -39 25
-9 17 -13 20 -13 8z"/>
<path d="M2301 1064 c0 -11 3 -14 6 -6 3 7 2 16 -1 19 -3 4 -6 -2 -5 -13z"/>
<path d="M2781 1064 c0 -11 3 -14 6 -6 3 7 2 16 -1 19 -3 4 -6 -2 -5 -13z"/>
<path d="M6971 1059 c-7 -12 -10 -23 -8 -26 3 -3 11 5 17 17 15 28 8 35 -9 9z"/>
<path d="M6600 1052 c0 -18 29 -27 43 -13 9 9 8 11 -7 5 -11 -4 -21 -2 -27 7
-6 10 -9 11 -9 1z"/>
<path d="M7110 1052 c0 -18 29 -27 43 -13 9 9 8 11 -7 5 -11 -4 -21 -2 -27 7
-6 10 -9 11 -9 1z"/>
<path d="M1868 1038 c6 -6 18 -8 28 -6 14 3 12 5 -9 10 -19 3 -25 2 -19 -4z"/>
<path d="M2138 1038 c6 -6 18 -8 28 -6 14 3 12 5 -9 10 -19 3 -25 2 -19 -4z"/>
<path d="M5758 1038 c6 -6 18 -8 28 -6 14 3 12 5 -9 10 -19 3 -25 2 -19 -4z"/>
<path d="M7018 1038 c6 -6 18 -8 28 -6 14 3 12 5 -9 10 -19 3 -25 2 -19 -4z"/>
<path d="M7258 1038 c6 -6 18 -8 28 -6 14 3 12 5 -9 10 -19 3 -25 2 -19 -4z"/>
<path d="M2578 1033 c6 -2 18 -2 25 0 6 3 1 5 -13 5 -14 0 -19 -2 -12 -5z"/>
<path d="M5988 1033 c6 -2 18 -2 25 0 6 3 1 5 -13 5 -14 0 -19 -2 -12 -5z"/>
<path d="M4323 665 c0 -27 2 -38 4 -22 2 15 2 37 0 50 -2 12 -4 0 -4 -28z"/>
<path d="M3956 687 c3 -10 9 -15 12 -12 3 3 0 11 -7 18 -10 9 -11 8 -5 -6z"/>
<path d="M4277 684 c-9 -9 9 -58 21 -60 7 -1 8 0 2 3 -14 7 -13 40 2 45 8 3 6
6 -4 10 -9 4 -18 4 -21 2z"/>
<path d="M4623 679 c-28 -10 -30 -19 -4 -12 14 4 20 -1 23 -18 2 -12 9 -24 16
-25 7 -1 8 0 2 3 -14 7 -13 40 2 45 8 3 7 6 -3 10 -7 3 -24 2 -36 -3z"/>
<path d="M4888 685 c-6 -7 3 -65 11 -65 7 0 7 58 -1 65 -2 3 -7 3 -10 0z"/>
<path d="M5157 684 c-9 -9 9 -58 21 -60 7 -1 8 0 2 3 -14 7 -13 40 2 45 8 3 6
6 -4 10 -9 4 -18 4 -21 2z"/>
<path d="M4037 673 c-14 -13 -7 -23 16 -22 19 1 19 2 3 6 -15 4 -16 7 -5 14 8
5 9 9 3 9 -6 0 -14 -3 -17 -7z"/>
<path d="M4094 666 c-3 -8 -4 -23 -1 -33 3 -12 5 -9 6 9 0 14 7 29 14 31 9 4
9 6 -1 6 -7 1 -15 -5 -18 -13z"/>
<path d="M4175 673 c11 -3 24 -10 28 -17 6 -7 7 -6 4 4 -2 8 -14 16 -28 17
-19 1 -20 1 -4 -4z"/>
<path d="M4346 673 c7 -4 14 -19 17 -33 4 -22 5 -21 4 4 -1 17 -9 31 -17 33
-10 3 -11 2 -4 -4z"/>
<path d="M4415 669 c-4 -6 1 -17 11 -24 18 -14 18 -14 0 -15 -11 0 -17 -3 -13
-6 3 -4 14 -4 23 0 16 6 16 8 0 25 -13 15 -14 20 -4 24 9 4 9 6 1 6 -6 1 -15
-4 -18 -10z"/>
<path d="M4484 665 c-9 -23 3 -45 23 -44 17 1 17 2 1 6 -10 2 -18 13 -18 23 0
10 8 21 18 23 16 4 16 5 -1 6 -10 0 -20 -6 -23 -14z"/>
<path d="M4558 672 c11 -7 9 -11 -9 -15 -19 -5 -20 -8 -9 -21 7 -9 20 -16 29
-15 10 0 7 4 -9 11 l-25 11 23 5 c25 4 25 23 1 30 -11 3 -11 2 -1 -6z"/>
<path d="M4682 650 c0 -19 2 -27 5 -17 2 9 2 25 0 35 -3 9 -5 1 -5 -18z"/>
<path d="M4727 673 c14 -3 23 -13 26 -31 4 -24 4 -24 6 6 1 29 -2 32 -26 31
-23 -1 -24 -2 -6 -6z"/>
<path d="M4774 665 c-9 -23 3 -45 23 -44 17 1 17 2 1 6 -10 2 -18 13 -18 23 0
10 8 21 18 23 16 4 16 5 -1 6 -10 0 -20 -6 -23 -14z"/>
<path d="M4830 676 c0 -2 9 -6 20 -9 11 -3 18 -1 14 4 -5 9 -34 13 -34 5z"/>
<path d="M4932 650 c0 -19 2 -27 5 -17 2 9 2 25 0 35 -3 9 -5 1 -5 -18z"/>
<path d="M4954 666 c-9 -24 4 -48 23 -44 12 2 18 12 18 28 0 29 -32 41 -41 16z
m36 -16 c0 -11 -7 -20 -15 -20 -8 0 -15 9 -15 20 0 11 7 20 15 20 8 0 15 -9
15 -20z"/>
<path d="M5024 666 c-3 -8 -4 -23 -1 -33 3 -11 5 -7 6 11 1 21 5 27 16 22 8
-3 15 -1 15 4 0 16 -30 12 -36 -4z"/>
<path d="M5110 676 c0 -2 7 -6 15 -10 8 -3 15 -1 15 4 0 6 -7 10 -15 10 -8 0
-15 -2 -15 -4z"/>
<path d="M3996 653 c-6 -15 -8 -15 -16 -3 -6 8 -10 11 -10 5 0 -5 4 -16 9 -24
7 -11 11 -9 21 9 6 12 10 24 7 26 -2 3 -8 -3 -11 -13z"/>
<path d="M4215 640 c-3 -5 -1 -10 4 -10 6 0 11 5 11 10 0 6 -2 10 -4 10 -3 0
-8 -4 -11 -10z"/>
<path d="M4848 643 c7 -3 16 -2 19 1 4 3 -2 6 -13 5 -11 0 -14 -3 -6 -6z"/>
<path d="M5107 643 c-14 -13 -7 -23 16 -22 21 0 21 1 2 8 l-20 8 20 5 c13 4
15 6 4 7 -9 0 -19 -2 -22 -6z"/>
<path d="M4038 628 c5 -5 16 -8 23 -6 8 3 3 7 -10 11 -17 4 -21 3 -13 -5z"/>
<path d="M4838 623 c6 -2 18 -2 25 0 6 3 1 5 -13 5 -14 0 -19 -2 -12 -5z"/>
<path d="M2373 455 c0 -27 2 -37 4 -22 3 20 9 27 19 23 8 -3 14 -1 14 4 0 6
-6 10 -14 10 -8 0 -17 8 -19 18 -3 9 -5 -5 -4 -33z"/>
<path d="M3080 486 c0 -7 -9 -16 -21 -19 -15 -4 -20 -12 -17 -28 2 -12 9 -24
16 -25 7 -1 8 0 2 3 -15 7 -12 43 4 43 8 0 17 -10 19 -22 2 -13 5 -4 6 20 0
23 -1 42 -4 42 -3 0 -5 -6 -5 -14z"/>
<path d="M4950 486 c0 -7 -9 -16 -21 -19 -29 -8 -22 -51 9 -55 20 -3 22 1 22
42 0 25 -2 46 -5 46 -3 0 -5 -6 -5 -14z m0 -46 c0 -11 -7 -20 -15 -20 -8 0
-15 9 -15 20 0 11 7 20 15 20 8 0 15 -9 15 -20z"/>
<path d="M5280 486 c0 -7 -9 -16 -21 -19 -29 -8 -22 -51 9 -55 20 -3 22 1 22
42 0 25 -2 46 -5 46 -3 0 -5 -6 -5 -14z m0 -46 c0 -11 -7 -20 -15 -20 -8 0
-15 9 -15 20 0 11 7 20 15 20 8 0 15 -9 15 -20z"/>
<path d="M5623 455 c0 -27 2 -38 4 -22 2 15 2 37 0 50 -2 12 -4 0 -4 -28z"/>
<path d="M6253 455 c0 -27 2 -38 4 -23 2 15 12 29 21 31 16 4 16 5 0 6 -9 0
-19 9 -21 19 -3 9 -5 -5 -4 -33z"/>
<path d="M2733 478 c-5 -7 -6 -26 -2 -43 6 -28 7 -28 9 -5 1 14 3 33 5 43 4
20 1 21 -12 5z"/>
<path d="M4335 456 c-9 -21 -14 -41 -11 -44 3 -3 6 0 6 6 0 16 33 15 49 0 10
-11 11 -10 6 5 -4 9 -16 17 -26 17 -20 0 -26 15 -9 25 6 3 10 1 10 -6 0 -7 3
-10 6 -6 3 3 1 14 -4 24 -10 16 -13 13 -27 -21z"/>
<path d="M4646 474 c-4 -9 -4 -19 -1 -22 3 -3 5 0 5 7 0 7 5 9 10 6 6 -3 10
-2 10 4 0 18 -18 21 -24 5z"/>
<path d="M5023 478 c-5 -7 -6 -26 -2 -43 l7 -30 1 28 c0 15 7 27 14 27 9 0 8
3 -2 9 -11 7 -11 9 0 14 8 3 9 6 3 6 -6 1 -16 -5 -21 -11z"/>
<path d="M6208 480 c-9 -27 4 -70 21 -70 13 0 13 2 2 9 -8 5 -12 18 -9 29 6
23 -7 53 -14 32z"/>
<path d="M2426 472 c-8 -7 11 -56 22 -58 7 -1 8 0 2 3 -15 7 -12 43 4 43 8 0
16 -10 18 -22 2 -12 9 -23 16 -24 7 -1 8 0 2 3 -14 7 -13 43 2 43 6 0 9 3 5 6
-6 7 -66 12 -71 6z"/>
<path d="M3793 469 c-28 -10 -30 -19 -4 -12 14 4 20 -1 23 -18 2 -12 9 -24 16
-25 7 -1 8 0 2 3 -14 7 -13 40 2 45 8 3 7 6 -3 10 -7 3 -24 2 -36 -3z"/>
<path d="M4058 475 c-6 -7 3 -65 11 -65 7 0 7 58 -1 65 -2 3 -7 3 -10 0z"/>
<path d="M5368 475 c-6 -7 3 -65 11 -65 7 0 7 58 -1 65 -2 3 -7 3 -10 0z"/>
<path d="M6760 469 c-23 -6 -23 -7 -3 -8 14 -1 23 -8 25 -23 2 -12 9 -23 16
-24 7 -1 8 0 2 3 -14 7 -13 40 2 45 23 8 -17 15 -42 7z"/>
<path d="M2512 430 c-1 -25 2 -40 6 -34 4 6 15 13 25 17 21 8 20 49 -1 53 -7
1 -8 0 -2 -3 15 -7 12 -43 -4 -43 -8 0 -17 12 -19 28 -3 17 -4 11 -5 -18z"/>
<path d="M2574 459 c-4 -7 1 -16 12 -22 17 -10 17 -11 -1 -18 -16 -6 -17 -8
-3 -8 25 -1 34 20 13 31 -14 8 -15 12 -4 19 9 6 10 9 2 9 -6 0 -15 -5 -19 -11z"/>
<path d="M2775 460 c-3 -6 1 -7 9 -4 18 7 21 14 7 14 -6 0 -13 -4 -16 -10z"/>
<path d="M2817 463 c-14 -13 -7 -23 16 -22 19 1 19 2 3 6 -15 4 -16 7 -5 14 8
5 9 9 3 9 -6 0 -14 -3 -17 -7z"/>
<path d="M2877 463 c-14 -13 -7 -23 16 -22 19 1 19 2 3 6 -15 4 -16 7 -5 14 8
5 9 9 3 9 -6 0 -14 -3 -17 -7z"/>
<path d="M2935 460 c-3 -6 1 -7 9 -4 18 7 21 14 7 14 -6 0 -13 -4 -16 -10z"/>
<path d="M2986 461 c-4 -5 3 -7 14 -4 23 6 26 13 6 13 -8 0 -17 -4 -20 -9z"/>
<path d="M3104 455 c-10 -24 4 -45 28 -44 l23 2 -22 4 c-13 2 -23 8 -23 13 0
5 10 11 23 13 21 4 21 4 -3 6 -23 2 -24 3 -5 11 18 8 18 9 2 9 -10 1 -20 -6
-23 -14z"/>
<path d="M3164 455 c-9 -23 3 -45 23 -44 17 1 17 2 1 6 -10 2 -18 13 -18 23 0
10 8 21 18 23 16 4 16 5 -1 6 -10 0 -20 -6 -23 -14z"/>
<path d="M3220 466 c0 -2 9 -6 20 -9 11 -3 18 -1 14 4 -5 9 -34 13 -34 5z"/>
<path d="M3285 461 c-2 -5 9 -7 25 -5 24 3 29 -1 33 -21 4 -23 4 -23 3 2 -1
23 -6 28 -28 30 -15 1 -30 -2 -33 -6z"/>
<path d="M3374 456 c-3 -8 -4 -25 -2 -39 3 -24 3 -24 23 -5 16 16 17 18 2 13
-13 -5 -17 -2 -17 13 0 11 8 23 18 25 16 4 16 5 -1 6 -10 0 -20 -5 -23 -13z"/>
<path d="M3454 456 c-9 -24 4 -48 23 -44 12 2 18 12 18 28 0 29 -32 41 -41 16z
m36 -16 c0 -11 -7 -20 -15 -20 -8 0 -15 9 -15 20 0 11 7 20 15 20 8 0 15 -9
15 -20z"/>
<path d="M3525 460 c-3 -6 1 -7 9 -4 18 7 21 14 7 14 -6 0 -13 -4 -16 -10z"/>
<path d="M3568 463 c6 -2 18 -2 25 0 6 3 1 5 -13 5 -14 0 -19 -2 -12 -5z"/>
<path d="M3654 455 c-9 -23 3 -45 23 -44 17 1 17 2 1 6 -10 2 -18 13 -18 23 0
10 8 21 18 23 16 4 16 5 -1 6 -10 0 -20 -6 -23 -14z"/>
<path d="M3728 462 c11 -7 9 -11 -9 -15 -19 -5 -20 -8 -9 -21 7 -9 20 -16 29
-15 10 0 7 4 -9 11 l-25 11 23 5 c25 4 25 23 1 30 -11 3 -11 2 -1 -6z"/>
<path d="M3852 440 c0 -19 2 -27 5 -17 2 9 2 25 0 35 -3 9 -5 1 -5 -18z"/>
<path d="M3897 463 c14 -3 23 -13 26 -31 4 -24 4 -24 6 6 1 29 -2 32 -26 31
-23 -1 -24 -2 -6 -6z"/>
<path d="M3944 455 c-9 -23 3 -45 23 -44 17 1 17 2 1 6 -10 2 -18 13 -18 23 0
10 8 21 18 23 16 4 16 5 -1 6 -10 0 -20 -6 -23 -14z"/>
<path d="M4000 466 c0 -2 9 -6 20 -9 11 -3 18 -1 14 4 -5 9 -34 13 -34 5z"/>
<path d="M4102 440 c0 -19 2 -27 5 -17 2 9 2 25 0 35 -3 9 -5 1 -5 -18z"/>
<path d="M4124 456 c-9 -24 4 -48 23 -44 12 2 18 12 18 28 0 29 -32 41 -41 16z
m36 -16 c0 -11 -7 -20 -15 -20 -8 0 -15 9 -15 20 0 11 7 20 15 20 8 0 15 -9
15 -20z"/>
<path d="M4194 456 c-3 -8 -4 -23 -1 -33 3 -11 5 -7 6 11 1 21 5 27 16 22 8
-3 15 -1 15 4 0 16 -30 12 -36 -4z"/>
<path d="M4292 440 c0 -19 2 -27 5 -17 2 9 2 25 0 35 -3 9 -5 1 -5 -18z"/>
<path d="M4404 456 c-3 -8 -4 -23 -1 -33 3 -11 5 -7 6 11 1 21 5 27 16 22 8
-3 15 -1 15 4 0 16 -30 12 -36 -4z"/>
<path d="M4467 463 c-14 -13 -7 -23 16 -22 19 1 19 2 3 6 -15 4 -16 7 -5 14 8
5 9 9 3 9 -6 0 -14 -3 -17 -7z"/>
<path d="M4527 463 c-14 -13 -7 -23 16 -22 19 1 19 2 3 6 -15 4 -16 7 -5 14 8
5 9 9 3 9 -6 0 -14 -3 -17 -7z"/>
<path d="M4588 463 c7 -3 16 -2 19 1 4 3 -2 6 -13 5 -11 0 -14 -3 -6 -6z"/>
<path d="M4715 461 c-3 -7 0 -8 9 -5 10 4 16 -3 19 -23 l5 -28 -2 29 c-1 30
-19 45 -31 27z"/>
<path d="M4773 454 c-2 -7 -3 -21 0 -31 3 -12 5 -8 6 10 0 15 5 27 10 27 5 0
12 -12 14 -27 l4 -28 2 28 c0 15 5 27 10 27 5 0 12 -12 14 -27 4 -27 4 -26 6
4 1 29 -1 32 -30 31 -17 -1 -33 -7 -36 -14z"/>
<path d="M4880 461 c13 -10 13 -12 0 -21 -13 -9 -13 -10 0 -11 10 0 8 -3 -5
-9 -19 -8 -19 -9 3 -9 20 -1 23 3 20 26 -2 14 -10 28 -18 30 -13 4 -13 3 0 -6z"/>
<path d="M5070 466 c0 -2 7 -7 16 -10 8 -3 12 -2 9 4 -6 10 -25 14 -25 6z"/>
<path d="M5121 448 c-1 -31 15 -46 32 -29 9 9 8 11 -5 6 -13 -5 -18 0 -21 22
l-4 28 -2 -27z"/>
<path d="M5182 440 c0 -19 2 -27 5 -17 2 9 2 25 0 35 -3 9 -5 1 -5 -18z"/>
<path d="M5206 463 c7 -4 14 -19 17 -33 4 -22 5 -21 4 4 -1 17 -9 31 -17 33
-10 3 -11 2 -4 -4z"/>
<path d="M5310 466 c0 -2 9 -6 20 -9 11 -3 18 -1 14 4 -5 9 -34 13 -34 5z"/>
<path d="M5412 440 c0 -19 2 -27 5 -17 2 9 2 25 0 35 -3 9 -5 1 -5 -18z"/>
<path d="M5434 456 c-9 -24 4 -48 23 -44 12 2 18 12 18 28 0 29 -32 41 -41 16z
m36 -16 c0 -11 -7 -20 -15 -20 -8 0 -15 9 -15 20 0 11 7 20 15 20 8 0 15 -9
15 -20z"/>
<path d="M5504 456 c-3 -8 -4 -23 -1 -33 3 -11 5 -7 6 11 1 21 5 27 16 22 8
-3 15 -1 15 4 0 16 -30 12 -36 -4z"/>
<path d="M5580 461 c13 -10 13 -12 0 -21 -13 -9 -13 -10 0 -11 10 0 8 -3 -5
-9 -19 -8 -19 -9 3 -9 20 -1 23 3 20 26 -2 14 -10 28 -18 30 -13 4 -13 3 0 -6z"/>
<path d="M5684 455 c-9 -23 3 -45 23 -44 17 1 17 2 1 6 -10 2 -18 13 -18 23 0
10 8 21 18 23 16 4 16 5 -1 6 -10 0 -20 -6 -23 -14z"/>
<path d="M5788 463 c7 -3 16 -2 19 1 4 3 -2 6 -13 5 -11 0 -14 -3 -6 -6z"/>
<path d="M5835 461 c-3 -7 0 -8 9 -5 10 4 16 -3 19 -23 l5 -28 -2 29 c-1 30
-19 45 -31 27z"/>
<path d="M5890 466 c0 -2 9 -6 20 -9 11 -3 18 -1 14 4 -5 9 -34 13 -34 5z"/>
<path d="M5955 460 c-3 -6 1 -7 9 -4 18 7 21 14 7 14 -6 0 -13 -4 -16 -10z"/>
<path d="M5997 463 c-4 -3 -7 -22 -7 -42 0 -20 4 -31 8 -25 4 6 14 14 22 17
12 4 11 6 -2 6 -11 1 -18 9 -18 20 0 11 8 22 18 24 14 4 14 5 1 6 -9 0 -19 -2
-22 -6z"/>
<path d="M6182 440 c0 -19 2 -27 5 -17 2 9 2 25 0 35 -3 9 -5 1 -5 -18z"/>
<path d="M6353 454 c-2 -7 -3 -21 0 -31 3 -12 5 -8 6 10 0 15 5 27 10 27 5 0
12 -12 14 -27 l4 -28 2 27 c0 16 8 28 19 31 9 2 2 4 -16 4 -19 0 -36 -6 -39
-13z"/>
<path d="M6442 440 c0 -19 2 -27 5 -17 2 9 2 25 0 35 -3 9 -5 1 -5 -18z"/>
<path d="M6474 455 c-9 -23 3 -45 23 -44 17 1 17 2 1 6 -10 2 -18 13 -18 23 0
10 8 21 18 23 16 4 16 5 -1 6 -10 0 -20 -6 -23 -14z"/>
<path d="M6535 460 c-3 -6 1 -7 9 -4 18 7 21 14 7 14 -6 0 -13 -4 -16 -10z"/>
<path d="M6576 461 c-4 -5 3 -7 14 -4 23 6 26 13 6 13 -8 0 -17 -4 -20 -9z"/>
<path d="M6635 459 c-4 -6 1 -17 11 -24 18 -14 18 -14 0 -15 -11 0 -17 -3 -13
-6 3 -4 14 -4 23 0 16 6 16 8 0 25 -13 15 -14 20 -4 24 9 4 9 6 1 6 -6 1 -15
-4 -18 -10z"/>
<path d="M6686 461 c-4 -5 3 -7 14 -4 23 6 26 13 6 13 -8 0 -17 -4 -20 -9z"/>
<path d="M3570 436 c7 -7 13 -7 20 0 6 6 3 10 -10 10 -13 0 -16 -4 -10 -10z"/>
<path d="M4650 439 l-25 -7 28 -1 c15 -1 27 -6 27 -13 0 -6 3 -9 6 -5 14 14
-12 33 -36 26z"/>
<path d="M6058 443 c7 -3 16 -2 19 1 4 3 -2 6 -13 5 -11 0 -14 -3 -6 -6z"/>
<path d="M6150 441 c0 -7 -4 -9 -10 -6 -6 4 -7 -1 -3 -11 6 -15 7 -15 15 1 6
9 7 19 4 22 -3 4 -6 1 -6 -6z"/>
<path d="M6318 443 c7 -3 16 -2 19 1 4 3 -2 6 -13 5 -11 0 -14 -3 -6 -6z"/>
<path d="M2932 424 c9 -9 21 -15 27 -13 6 2 -2 10 -17 17 -25 11 -25 11 -10
-4z"/>
<path d="M3238 433 c7 -3 16 -2 19 1 4 3 -2 6 -13 5 -11 0 -14 -3 -6 -6z"/>
<path d="M4018 433 c7 -3 16 -2 19 1 4 3 -2 6 -13 5 -11 0 -14 -3 -6 -6z"/>
<path d="M4600 432 c0 -6 -8 -13 -17 -15 -16 -4 -16 -5 -1 -6 18 -1 34 16 24
26 -3 4 -6 1 -6 -5z"/>
<path d="M5328 433 c7 -3 16 -2 19 1 4 3 -2 6 -13 5 -11 0 -14 -3 -6 -6z"/>
<path d="M5800 432 c0 -6 -8 -13 -17 -15 -16 -4 -16 -5 -1 -6 18 -1 34 16 24
26 -3 4 -6 1 -6 -5z"/>
<path d="M5908 433 c7 -3 16 -2 19 1 4 3 -2 6 -13 5 -11 0 -14 -3 -6 -6z"/>
<path d="M2818 418 c5 -5 16 -8 23 -6 8 3 3 7 -10 11 -17 4 -21 3 -13 -5z"/>
<path d="M2878 418 c5 -5 16 -8 23 -6 8 3 3 7 -10 11 -17 4 -21 3 -13 -5z"/>
<path d="M2988 418 c5 -5 16 -8 23 -6 8 3 3 7 -10 11 -17 4 -21 3 -13 -5z"/>
<path d="M4468 418 c5 -5 16 -8 23 -6 8 3 3 7 -10 11 -17 4 -21 3 -13 -5z"/>
<path d="M4528 418 c5 -5 16 -8 23 -6 8 3 3 7 -10 11 -17 4 -21 3 -13 -5z"/>
<path d="M5080 420 c-9 -6 -10 -10 -3 -10 6 0 15 5 18 10 8 12 4 12 -15 0z"/>
<path d="M6578 418 c5 -5 16 -8 23 -6 8 3 3 7 -10 11 -17 4 -21 3 -13 -5z"/>
<path d="M6688 418 c5 -5 16 -8 23 -6 8 3 3 7 -10 11 -17 4 -21 3 -13 -5z"/>
<path d="M3228 413 c6 -2 18 -2 25 0 6 3 1 5 -13 5 -14 0 -19 -2 -12 -5z"/>
<path d="M3568 413 c6 -2 18 -2 25 0 6 3 1 5 -13 5 -14 0 -19 -2 -12 -5z"/>
<path d="M4008 413 c6 -2 18 -2 25 0 6 3 1 5 -13 5 -14 0 -19 -2 -12 -5z"/>
<path d="M5318 413 c6 -2 18 -2 25 0 6 3 1 5 -13 5 -14 0 -19 -2 -12 -5z"/>
<path d="M5898 413 c6 -2 18 -2 25 0 6 3 1 5 -13 5 -14 0 -19 -2 -12 -5z"/>
<path d="M3568 393 c7 -3 16 -2 19 1 4 3 -2 6 -13 5 -11 0 -14 -3 -6 -6z"/>
</g>
</svg>
